<svg xmlns="http://www.w3.org/2000/svg" xmlns:xlink="http://www.w3.org/1999/xlink" width="53.8" height="55.281" viewBox="0 0 53.8 55.281">
  <defs>
    <linearGradient id="linear-gradient" x1="0.488" y1="-0.404" x2="0.51" y2="1.222" gradientUnits="objectBoundingBox">
      <stop offset="0.254" stop-color="#0098d2"/>
      <stop offset="0.942" stop-color="#00fbf8"/>
    </linearGradient>
  </defs>
  <g id="Grupo_2671" data-name="Grupo 2671" transform="translate(-618.259 -3964.211)">
    <ellipse id="Elipse_114" data-name="Elipse 114" cx="26.9" cy="18.473" rx="26.9" ry="18.473" transform="translate(618.259 3982.547)" fill="#e25d90"/>
    <ellipse id="Elipse_115" data-name="Elipse 115" cx="24.415" cy="16.433" rx="24.415" ry="16.433" transform="translate(620.744 3984.587)" fill="#ff9641"/>
    <ellipse id="Elipse_116" data-name="Elipse 116" cx="19.881" cy="10.891" rx="19.881" ry="10.891" transform="translate(625.278 3990.128)" fill="url(#linear-gradient)"/>
    <g id="Grupo_2670" data-name="Grupo 2670">
      <circle id="Elipse_117" data-name="Elipse 117" cx="17.939" cy="17.939" r="17.939" transform="translate(628.008 3964.211)" fill="#ea7916"/>
      <circle id="Elipse_118" data-name="Elipse 118" cx="15.535" cy="15.535" r="15.535" transform="translate(630.412 3966.615)" fill="#ffd240"/>
      <g id="Grupo_2669" data-name="Grupo 2669">
        <path id="Trazado_16005" data-name="Trazado 16005" d="M635.262,3982.416c-.2-3.683,3.936-7.107,9.654-7.9a14.241,14.241,0,0,1,7.588.874c2.258,1,3.648,2.588,3.917,4.477a9.876,9.876,0,0,1-3.309,9.837,11.65,11.65,0,0,1-11.345,1.877c-3.58-1.387-5.876-4.5-6.467-8.773h0c-.019-.131-.031-.263-.038-.394m.822.286h0Zm18.953-1.13a10.751,10.751,0,0,0-.175-1.428l-.006-.039c-.185-1.333-1.247-2.493-2.992-3.264a12.638,12.638,0,0,0-6.73-.754c-4.874.674-8.659,3.645-8.266,6.506.509,3.675,2.452,6.343,5.471,7.513a10.023,10.023,0,0,0,9.76-1.617,8.125,8.125,0,0,0,2.938-6.917" fill="#ea7916"/>
        <path id="Trazado_16006" data-name="Trazado 16006" d="M635.294,3982.743a.792.792,0,0,1,1.575-.15c.395,2.852,4.846,4.692,9.721,4.018s8.662-3.663,8.266-6.506a.791.791,0,1,1,1.568-.217c.532,3.827-3.694,7.472-9.617,8.291s-10.977-1.539-11.507-5.369c0-.023-.005-.045-.006-.067" fill="#ea7916"/>
        <path id="Trazado_16007" data-name="Trazado 16007" d="M643.984,3979.2c.091.651-.2,1.231-.658,1.295s-.9-.412-.99-1.064.2-1.231.658-1.295.9.412.99,1.064" fill="#ea7916"/>
        <path id="Trazado_16008" data-name="Trazado 16008" d="M648.368,3978.339c.092.652-.2,1.232-.658,1.3s-.9-.413-.989-1.064.2-1.232.658-1.3.9.413.989,1.064" fill="#ea7916"/>
        <path id="Trazado_16009" data-name="Trazado 16009" d="M639.324,3975.729a.62.62,0,0,1-.513-.971,4.2,4.2,0,0,1,3.519-1.824.621.621,0,0,1-.007,1.243h-.028a2.934,2.934,0,0,0-2.457,1.282.622.622,0,0,1-.514.271" fill="#ea7916"/>
        <path id="Trazado_16010" data-name="Trazado 16010" d="M649.052,3973.832a.61.61,0,0,1-.343-.1,2.931,2.931,0,0,0-2.759-.264l-.021.008a.621.621,0,0,1-.481-1.146,4.206,4.206,0,0,1,3.95.367.622.622,0,0,1-.346,1.139" fill="#ea7916"/>
        <path id="Trazado_16011" data-name="Trazado 16011" d="M644.848,3984a9.21,9.21,0,0,1-4.9-1.178.725.725,0,0,1,.97-1.078,8.977,8.977,0,0,0,3.832.805,7.583,7.583,0,0,0,5.931-2.471.725.725,0,0,1,1.088.958,8.822,8.822,0,0,1-6.334,2.949c-.2.01-.395.015-.59.015m-3.921-2.25.007.006-.007-.006" fill="#ea7916"/>
        <path id="Trazado_16012" data-name="Trazado 16012" d="M640.014,3983.535H640a.622.622,0,0,1-.6-.638,2.205,2.205,0,0,1,.812-1.459.622.622,0,0,1,.8.953,1.1,1.1,0,0,0-.367.54.621.621,0,0,1-.621.6" fill="#ea7916"/>
      </g>
    </g>
  </g>
</svg>
