<svg xmlns="http://www.w3.org/2000/svg" width="650.691" height="645.231" viewBox="0 0 650.691 645.231">
  <g id="Grupo_97" data-name="Grupo 97" transform="translate(-4827.596 -3511.769)">
    <rect id="Rectángulo_20" data-name="Rectángulo 20" width="650.691" height="640.151" rx="20.102" transform="translate(4827.596 3516.849)" fill="#fff0eb"/>
    <text id="_1._Go_to_the_JavaSwap_exchange_page_https:_javaswap.io_._2._Unlock_your_Metamask_wallet_by_clicking_Connect._If_you_are_having_difficulty_use_our_guide._3._Select_the_token_you_want_to_swap_from_the_dropdown_menu_in_the_From_section._The_default_setti" data-name="1. Go to the JavaSwap exchange page https://javaswap.io/. 
2. Unlock your Metamask wallet by clicking Connect. If you are having difficulty, use our guide.
3. Select the token you want to swap from the dropdown menu in the &quot;From&quot; section. The default setti" transform="translate(4872.904 3546.579)" fill="#444241" font-size="12" font-family="Poppins-Regular, Poppins" letter-spacing="-0.013em"><tspan x="0" y="13">1. Go to the JavaSwap exchange page https://javaswap.io/. </tspan><tspan x="0" y="52">2. Unlock your Metamask wallet by clicking Connect. If you are having difficulty, use our guide.</tspan><tspan x="0" y="91">3. Select the token you want to swap from the dropdown menu in the &quot;From&quot; section. The </tspan><tspan x="0" y="130">default setting is JAVA. </tspan><tspan x="0" y="169">4. Your price will be estimated automatically in the “From” section. You can also input your </tspan><tspan x="0" y="208">own “From” amount and then it will auto-populate an estimate in the “To” section. </tspan><tspan x="0" y="247">Select the token you want to swap to in the &quot;To&quot; section. And/or type an amount for your &quot;To&quot; </tspan><tspan x="0" y="286">currency by clicking inside the input box. And it will then auto-populate in the “From” section. </tspan><tspan x="0" y="325">5. Check to ensure you have chosen the correct tokens and amounts, and if so click the Swap </tspan><tspan x="0" y="364">button.</tspan><tspan x="0" y="403">6. A window with more details will appear. Check the details are correct. </tspan><tspan x="0" y="442">When you are ready, click the Confirm Swap button. Your wallet will then ask you to confirm </tspan><tspan x="0" y="481">the action.</tspan><tspan x="0" y="520">7. You’re finished! You can now view your transaction details on the explorer. https://explorer-</tspan><tspan x="0" y="559">mainnet.maticvigil.com/ </tspan></text>
    <g id="Grupo_96" data-name="Grupo 96">
      <path id="Trazado_100" data-name="Trazado 100" d="M4850.361,3521.976l-2.856-2.636.156-3.884L4843.8,3515l-2.158-3.233-3.388,1.9-3.646-1.349-1.624,3.531-3.743,1.051.762,3.811-2.409,3.051,2.856,2.636-.156,3.883,3.86.454,2.156,3.234,3.39-1.9,3.645,1.349,1.625-3.531,3.741-1.052-.761-3.811ZM4837,3528.009l-5.111-4.444,1.417-1.631,3.6,3.136,7.006-6.879,1.513,1.541Z" fill="#d86d25"/>
    </g>
  </g>
</svg>
