<svg xmlns="http://www.w3.org/2000/svg" width="650.691" height="645.231" viewBox="0 0 650.691 645.231">
  <g id="Grupo_3003" data-name="Grupo 3003" transform="translate(-728.809 -1048.887)">
    <g id="Grupo_97" data-name="Grupo 97" transform="translate(-4098.787 -2462.882)">
      <rect id="Rectángulo_20" data-name="Rectángulo 20" width="650.691" height="640.151" rx="20.102" transform="translate(4827.596 3516.849)" fill="#fff0eb"/>
      <text id="_1._Vaya_a_la_página_de_intercambio_de_JavaSwap_https:_javaswap.io_._2._Desbloquee_su_billetera_Metamask_haciendo_clic_en_Conectar._Si_tiene_alguna_dificultad_utilice_nuestra_guía._3._Seleccione_el_token_que_desea_intercambiar_del_menú_desplegable_en_la_s" data-name="1. Vaya a la página de intercambio de JavaSwap https://javaswap.io/.
2. Desbloquee su billetera Metamask haciendo clic en Conectar. Si tiene alguna dificultad, utilice nuestra guía.
3. Seleccione el token que desea intercambiar del menú desplegable en la s" transform="translate(4872.904 3533.973)" fill="#444241" font-size="12" font-family="Poppins-Regular, Poppins" letter-spacing="-0.013em"><tspan x="0" y="13">1. Vaya a la página de intercambio de JavaSwap https://javaswap.io/.</tspan><tspan x="0" y="52">2. Desbloquee su billetera Metamask haciendo clic en Conectar. Si tiene alguna dificultad, </tspan><tspan x="0" y="91">utilice nuestra guía.</tspan><tspan x="0" y="130">3. Seleccione el token que desea intercambiar del menú desplegable en la sección &quot;De&quot;. La </tspan><tspan x="0" y="169">configuración predeterminada es JAVA.</tspan><tspan x="0" y="208">4. Su precio se calculará automáticamente en la sección &quot;Desde&quot;. También puede ingresar su </tspan><tspan x="0" y="247">propia cantidad &quot;Desde&quot; y luego se completará automáticamente una estimación en la </tspan><tspan x="0" y="286">sección &quot;Hasta&quot;.</tspan><tspan x="0" y="325">Seleccione el token al que desea cambiar en la sección &quot;Para&quot;. Y / o escriba una cantidad para </tspan><tspan x="0" y="364">su moneda &quot;Para&quot; haciendo clic dentro del cuadro de entrada. Y luego se completará </tspan><tspan x="0" y="403">automáticamente en la sección &quot;De&quot;.</tspan><tspan x="0" y="442">5. Verifique que haya elegido las fichas y las cantidades correctas y, de ser así, haga clic en el </tspan><tspan x="0" y="481">botón Cambiar.</tspan><tspan x="0" y="520">6. Aparecerá una ventana con más detalles. Verifique que los detalles sean correctos.</tspan><tspan x="0" y="559">Cuando esté listo, haga clic en el botón Confirmar intercambio. Su billetera le pedirá que </tspan><tspan x="0" y="598">confirme la acción.</tspan></text>
      <g id="Grupo_96" data-name="Grupo 96">
        <path id="Trazado_100" data-name="Trazado 100" d="M4850.361,3521.976l-2.856-2.636.156-3.884L4843.8,3515l-2.158-3.233-3.388,1.9-3.646-1.349-1.624,3.531-3.743,1.051.762,3.811-2.409,3.051,2.856,2.636-.156,3.883,3.86.454,2.156,3.234,3.39-1.9,3.645,1.349,1.625-3.531,3.741-1.052-.761-3.811ZM4837,3528.009l-5.111-4.444,1.417-1.631,3.6,3.136,7.006-6.879,1.513,1.541Z" fill="#d86d25"/>
      </g>
    </g>
  </g>
</svg>
