<svg xmlns="http://www.w3.org/2000/svg" xmlns:xlink="http://www.w3.org/1999/xlink" width="64.916" height="38.441" viewBox="0 0 64.916 38.441">
  <defs>
    <linearGradient id="linear-gradient" y1="0.5" x2="1" y2="0.5" gradientUnits="objectBoundingBox">
      <stop offset="0" stop-color="#a64343"/>
      <stop offset="1" stop-color="#d2683d"/>
    </linearGradient>
    <linearGradient id="linear-gradient-2" x1="0.151" y1="-0.218" x2="0.584" y2="1.069" gradientUnits="objectBoundingBox">
      <stop offset="0" stop-color="#9a1c61"/>
      <stop offset="1" stop-color="#c72743"/>
    </linearGradient>
    <linearGradient id="linear-gradient-3" x1="0.443" x2="0.557" y2="1" gradientUnits="objectBoundingBox">
      <stop offset="0" stop-color="#c093ca"/>
      <stop offset="1" stop-color="#deadbe"/>
    </linearGradient>
    <linearGradient id="linear-gradient-4" x1="0.423" y1="0" x2="0.577" y2="1" xlink:href="#linear-gradient-3"/>
    <linearGradient id="linear-gradient-5" x1="0.405" y1="0" x2="0.595" y2="1" xlink:href="#linear-gradient-3"/>
    <linearGradient id="linear-gradient-6" x1="0.298" y1="0" x2="0.701" y2="1" xlink:href="#linear-gradient-3"/>
    <linearGradient id="linear-gradient-7" x1="0.401" y1="0" x2="0.599" y2="1" xlink:href="#linear-gradient-3"/>
    <linearGradient id="linear-gradient-8" x1="0.337" y1="0" x2="0.663" y2="1" xlink:href="#linear-gradient-3"/>
    <linearGradient id="linear-gradient-9" x1="0.425" y1="0" x2="0.575" y2="1" xlink:href="#linear-gradient-3"/>
    <linearGradient id="linear-gradient-10" x1="0.338" y1="0" x2="0.662" y2="1" xlink:href="#linear-gradient-3"/>
    <linearGradient id="linear-gradient-11" x1="0.414" y1="0" x2="0.586" y2="1" xlink:href="#linear-gradient-3"/>
    <linearGradient id="linear-gradient-12" x1="0.379" y1="0" x2="0.621" y2="1" xlink:href="#linear-gradient-3"/>
    <linearGradient id="linear-gradient-13" x1="0.018" y1="0" x2="0.982" y2="1" xlink:href="#linear-gradient-3"/>
    <linearGradient id="linear-gradient-14" x1="0.342" y1="0" x2="0.658" y2="1" xlink:href="#linear-gradient-3"/>
    <linearGradient id="linear-gradient-15" x1="0.024" y1="0" x2="0.976" y2="1" xlink:href="#linear-gradient-3"/>
    <linearGradient id="linear-gradient-16" x1="-0.082" y1="0" x2="1.082" y2="1" xlink:href="#linear-gradient-3"/>
    <linearGradient id="linear-gradient-17" x1="-0.068" y1="0" x2="1.069" y2="1" xlink:href="#linear-gradient-3"/>
    <linearGradient id="linear-gradient-18" x1="-13.668" y1="-0.202" x2="4.349" y2="0.704" gradientUnits="objectBoundingBox">
      <stop offset="0.022" stop-color="#de97af"/>
      <stop offset="0.994" stop-color="#9a699e"/>
    </linearGradient>
    <linearGradient id="linear-gradient-19" x1="1.868" y1="0.856" x2="2.416" y2="1.007" xlink:href="#linear-gradient-18"/>
    <linearGradient id="linear-gradient-20" x1="0.297" y1="-1.24" x2="0.703" y2="2.24" xlink:href="#linear-gradient-3"/>
    <linearGradient id="linear-gradient-21" x1="0.307" y1="-1.726" x2="0.693" y2="2.726" xlink:href="#linear-gradient-3"/>
    <linearGradient id="linear-gradient-22" x1="0.335" y1="-38.868" x2="0.665" y2="39.865" xlink:href="#linear-gradient-3"/>
    <linearGradient id="linear-gradient-23" x1="0.332" y1="-13.038" x2="0.668" y2="14.037" xlink:href="#linear-gradient-3"/>
    <linearGradient id="linear-gradient-24" x1="-0.831" y1="0.122" x2="1.831" y2="0.878" xlink:href="#linear-gradient-3"/>
    <linearGradient id="linear-gradient-25" x1="-0.677" y1="0.116" x2="1.677" y2="0.884" xlink:href="#linear-gradient-3"/>
    <linearGradient id="linear-gradient-26" x1="-0.316" y1="0.091" x2="1.316" y2="0.909" xlink:href="#linear-gradient-3"/>
    <linearGradient id="linear-gradient-27" x1="-0.224" y1="0.083" x2="1.224" y2="0.917" xlink:href="#linear-gradient-3"/>
    <linearGradient id="linear-gradient-28" x1="-0.089" y1="0.045" x2="1.089" y2="0.955" xlink:href="#linear-gradient-3"/>
    <linearGradient id="linear-gradient-29" x1="-0.105" y1="0.049" x2="1.105" y2="0.951" xlink:href="#linear-gradient-3"/>
    <linearGradient id="linear-gradient-30" x1="2.52" y1="1.839" x2="-0.717" y2="-0.365" xlink:href="#linear-gradient"/>
    <linearGradient id="linear-gradient-31" x1="-0.778" y1="0.515" x2="-0.63" y2="0.513" xlink:href="#linear-gradient-18"/>
    <linearGradient id="linear-gradient-32" x1="0.448" y1="0" x2="0.552" y2="1" xlink:href="#linear-gradient-3"/>
    <linearGradient id="linear-gradient-33" x1="0.374" y1="0" x2="0.626" y2="1" xlink:href="#linear-gradient-3"/>
    <linearGradient id="linear-gradient-34" x1="19.128" y1="1.246" x2="-3.4" y2="0.343" xlink:href="#linear-gradient-18"/>
    <linearGradient id="linear-gradient-35" x1="10.689" y1="0.968" x2="6.989" y2="0.798" xlink:href="#linear-gradient-18"/>
  </defs>
  <g id="Grupo_2695" data-name="Grupo 2695" transform="translate(-612.701 -4753.969)">
    <path id="Trazado_16013" data-name="Trazado 16013" d="M629.528,4784.835l-16.449,1.054,10.63-4.822,6.5.375Z" fill="#761845"/>
    <path id="Trazado_16014" data-name="Trazado 16014" d="M674.5,4779.029l-.078,3.049-.07,2.592-.167,6.466-17.137.373-2.663.06-5.908.129h-.093l-1.747.04-6.935.149-.059,0h-.033l-.241,0h-.007l-4.406.094H634.9l-1.124.025h-.019l-.048,0-1.684.035h-.007l-.812.02h-.07l-2.9.064-.241,0-.523.01-.946-11.685.122-.558.271-1.243,4.784-21.947,3.716-.373.063-.01h.03l4.45-.453.957-.094.682.473,10.858,7.511,20.185,13.968.986.681Z" fill="#a64343"/>
    <path id="Trazado_16015" data-name="Trazado 16015" d="M630.024,4766.794l1.11,25.281.947-.021-1.118-28.078H630.5Z" fill="#ffffd9"/>
    <path id="Trazado_16016" data-name="Trazado 16016" d="M645.646,4762.074l.637,29.671.883-.019-.76-28.791Z" fill="#ffffd9"/>
    <path id="Trazado_16017" data-name="Trazado 16017" d="M674.35,4784.67l-.167,6.466-19.8.433-.712-19.45,18.972,5.626.938.278.048.4.836,1.916Z" fill="url(#linear-gradient)"/>
    <path id="Trazado_16018" data-name="Trazado 16018" d="M658.891,4782.058v9.688h.473l.237-9.9Z" fill="#ffffd9"/>
    <path id="Trazado_16019" data-name="Trazado 16019" d="M671.532,4781.882v9.688h.473l.237-9.9Z" fill="#ffffd9"/>
    <path id="Trazado_16020" data-name="Trazado 16020" d="M632.838,4757.01l7.448-1.008,13,14.732,3.12,11.345h21.207l-2.361-10.33-11-13.636-23.921-3.49-11.031,1.59-6.249,24.173L612.7,4785.3l.379.593,13.445-5.419Z" fill="url(#linear-gradient-2)"/>
    <path id="Trazado_16021" data-name="Trazado 16021" d="M623.551,4781.669l6.474-24.758,10.025-1.461.237.551-7.448,1.008-6.167,24.659Z" fill="#761845"/>
    <path id="Trazado_16022" data-name="Trazado 16022" d="M633.708,4792.025l-2.416-29.519.092-.014,2.416,29.519Z" fill="url(#linear-gradient-3)" style="mix-blend-mode: multiply;isolation: isolate"/>
    <path id="Trazado_16023" data-name="Trazado 16023" d="M634.9,4792l-2.107-34.983.092-.01,2.107,34.982Z" fill="url(#linear-gradient-4)" style="mix-blend-mode: multiply;isolation: isolate"/>
    <path id="Trazado_16024" data-name="Trazado 16024" d="M637.214,4791.744l-.089,0-.571-11.874-1.135-23.523v0l.063-.005h.03l1.131,23.534Z" fill="url(#linear-gradient-5)" style="mix-blend-mode: multiply;isolation: isolate"/>
    <path id="Trazado_16025" data-name="Trazado 16025" d="M639.609,4791.893l-.763-35.687.093,0,.763,35.688Z" fill="url(#linear-gradient-6)" style="mix-blend-mode: multiply;isolation: isolate"/>
    <path id="Trazado_16026" data-name="Trazado 16026" d="M643.317,4791.319l-1.539-33.35.093-.008,1.539,33.35Z" fill="url(#linear-gradient-7)" style="mix-blend-mode: multiply;isolation: isolate"/>
    <path id="Trazado_16027" data-name="Trazado 16027" d="M648.383,4791.7l-.714-27.175.093,0,.714,27.174Z" fill="url(#linear-gradient-8)" style="mix-blend-mode: multiply;isolation: isolate"/>
    <path id="Trazado_16028" data-name="Trazado 16028" d="M651.223,4791.575l-1.507-24.765.092-.01,1.507,24.765Z" fill="url(#linear-gradient-9)" style="mix-blend-mode: multiply;isolation: isolate"/>
    <path id="Trazado_16029" data-name="Trazado 16029" d="M657.044,4791.514l-.093,0,.189-9.434.093,0Z" fill="url(#linear-gradient-10)" style="mix-blend-mode: multiply;isolation: isolate"/>
    <path id="Trazado_16030" data-name="Trazado 16030" d="M661.21,4791.319l-.093-.008.426-9.237.093.008Z" fill="url(#linear-gradient-11)" style="mix-blend-mode: multiply;isolation: isolate"/>
    <path id="Trazado_16031" data-name="Trazado 16031" d="M662.869,4791.515l-.284-9.434.093,0,.284,9.434Z" fill="url(#linear-gradient-12)" style="mix-blend-mode: multiply;isolation: isolate"/>
    <rect id="Rectángulo_593" data-name="Rectángulo 593" width="0.093" height="9.25" transform="translate(665.378 4782.079)" fill="url(#linear-gradient-13)" style="mix-blend-mode: multiply;isolation: isolate"/>
    <path id="Trazado_16032" data-name="Trazado 16032" d="M668.217,4791.33l-.093,0,.189-9.25.093,0Z" fill="url(#linear-gradient-14)" style="mix-blend-mode: multiply;isolation: isolate"/>
    <rect id="Rectángulo_594" data-name="Rectángulo 594" width="0.093" height="9.134" transform="translate(670.681 4782.079)" fill="url(#linear-gradient-15)" style="mix-blend-mode: multiply;isolation: isolate"/>
    <path id="Trazado_16033" data-name="Trazado 16033" d="M631.564,4779.877h7.475l.329,12.02-7.287.157Z" fill="#761845"/>
    <path id="Trazado_16034" data-name="Trazado 16034" d="M631.564,4779.069l14.655.385v.593l-14.655-.169Z" fill="#ffffd9"/>
    <path id="Trazado_16035" data-name="Trazado 16035" d="M639.04,4779.558l.329,12.6,7.267-.412-.416-12.037Z" fill="#ffffd9"/>
    <path id="Trazado_16036" data-name="Trazado 16036" d="M639.655,4780.047l.285,11.269,6.295-.368-.36-10.766Z" fill="#a64343"/>
    <rect id="Rectángulo_595" data-name="Rectángulo 595" width="0.093" height="11.165" transform="translate(641.329 4780.047)" fill="url(#linear-gradient-16)" style="mix-blend-mode: multiply;isolation: isolate"/>
    <rect id="Rectángulo_596" data-name="Rectángulo 596" width="0.093" height="10.912" transform="translate(644.266 4780.147)" fill="url(#linear-gradient-17)" style="mix-blend-mode: multiply;isolation: isolate"/>
    <path id="Trazado_16037" data-name="Trazado 16037" d="M639.624,4764.3v6.6c0,.025-.133.05-.348.07-.935.1-3.408.184-3.408.184l-.79-6.516,4.035-.642.133-.02Z" fill="#ffffd9"/>
    <path id="Trazado_16038" data-name="Trazado 16038" d="M639.624,4764.3v6.6c0,.025-.133.05-.348.07l-.163-6.974.133-.02Z" fill="url(#linear-gradient-18)"/>
    <path id="Trazado_16039" data-name="Trazado 16039" d="M638.786,4770.638v.01l-2.633.149-.6-5.706,3.122-.348v.015Z" fill="url(#linear-gradient-19)"/>
    <path id="Trazado_16040" data-name="Trazado 16040" d="M638.786,4770.638l-2.092.114-.6-5.7,2.577-.293Z" fill="#761845"/>
    <path id="Trazado_16041" data-name="Trazado 16041" d="M635.647,4766.965l3.393-.359v.359s-3.5.616-3.488.509S635.647,4766.965,635.647,4766.965Z" fill="#ffffd9"/>
    <path id="Trazado_16042" data-name="Trazado 16042" d="M630.627,4771.408c.191-.082,15.986-.656,15.986-.656l-.073.431-15.818.95Z" fill="#ffffd9"/>
    <path id="Trazado_16043" data-name="Trazado 16043" d="M639.624,4783.883h6.6v.261l-6.6.136Z" fill="#ffffd9"/>
    <path id="Trazado_16044" data-name="Trazado 16044" d="M643.41,4780l-3.187,4.078h.69l3.08-4.162Z" fill="#ffffd9"/>
    <path id="Trazado_16045" data-name="Trazado 16045" d="M673.207,4769.278l-23.5-3.8.011-.124,23.5,3.805Z" fill="url(#linear-gradient-20)" style="mix-blend-mode: multiply;isolation: isolate"/>
    <path id="Trazado_16046" data-name="Trazado 16046" d="M668.838,4763.861l-22.98-2.729.008-.124,22.98,2.729Z" fill="url(#linear-gradient-21)" style="mix-blend-mode: multiply;isolation: isolate"/>
    <rect id="Rectángulo_597" data-name="Rectángulo 597" width="20.702" height="0.124" transform="translate(655.128 4774.197)" fill="url(#linear-gradient-22)" style="mix-blend-mode: multiply;isolation: isolate"/>
    <path id="Trazado_16047" data-name="Trazado 16047" d="M676.834,4778.754l-20.541-.241v-.125l20.541.241Z" fill="url(#linear-gradient-23)" style="mix-blend-mode: multiply;isolation: isolate"/>
    <path id="Trazado_16048" data-name="Trazado 16048" d="M660.44,4778.515l-.757-4.242.09-.029.757,4.242Z" fill="url(#linear-gradient-24)" style="mix-blend-mode: multiply;isolation: isolate"/>
    <path id="Trazado_16049" data-name="Trazado 16049" d="M670.729,4778.638l-.914-4.362.089-.033.914,4.362Z" fill="url(#linear-gradient-25)" style="mix-blend-mode: multiply;isolation: isolate"/>
    <path id="Trazado_16050" data-name="Trazado 16050" d="M662.919,4770.91l-1.182-3.57.085-.05,1.182,3.57Z" fill="url(#linear-gradient-26)" style="mix-blend-mode: multiply;isolation: isolate"/>
    <path id="Trazado_16051" data-name="Trazado 16051" d="M670.639,4771.471l-1.072-2.81.083-.057,1.072,2.81Z" fill="url(#linear-gradient-27)" style="mix-blend-mode: multiply;isolation: isolate"/>
    <path id="Trazado_16052" data-name="Trazado 16052" d="M654.57,4766.24l-2.322-4.37.075-.073,2.322,4.371Z" fill="url(#linear-gradient-28)" style="mix-blend-mode: multiply;isolation: isolate"/>
    <path id="Trazado_16053" data-name="Trazado 16053" d="M665.757,4768.051l-2.5-4.875.076-.07,2.5,4.875Z" fill="url(#linear-gradient-29)" style="mix-blend-mode: multiply;isolation: isolate"/>
    <path id="Trazado_16054" data-name="Trazado 16054" d="M657.187,4781.671l-.052.025-.727.383-3.119-11.346-3.479-3.875-.048-.055-2-2.224-.044-.055-1.305-1.453-.76-.846-3.775-4.2-.052-.055-1.862-2.08-.337-.373-9.6,1.393-6.471,24.762-10.473,4.218-.378-.592,10.354-4.91,6.341-24.593,10.543-1.826,14.078,16.286,3.141,11.316Z" fill="#ffffd9"/>
    <path id="Trazado_16055" data-name="Trazado 16055" d="M631.564,4779.069l-4.6-.419,1.294,13.759,3.82-.354Z" fill="#ffffd9"/>
    <path id="Trazado_16056" data-name="Trazado 16056" d="M631.77,4791.276l-1.1.115-.093.01-.831.09-.1.01-.972.1-1.049-12.53.975.1.093.01,1.565.159h.011l.026,0,1.053.109Z" fill="url(#linear-gradient-30)"/>
    <path id="Trazado_16057" data-name="Trazado 16057" d="M628.262,4792.41h-.237l-.03-.264-1.346-12.232-.122-1.094.393-.149.048-.02,1.268,13.49Z" fill="url(#linear-gradient-31)"/>
    <path id="Trazado_16058" data-name="Trazado 16058" d="M629.745,4791.49v.015l-.093.015,0-.02-1.046-12.332.093.01Z" fill="url(#linear-gradient-32)" style="mix-blend-mode: multiply;isolation: isolate"/>
    <path id="Trazado_16059" data-name="Trazado 16059" d="M630.668,4791.391l-.093.01-.371-12.058.056,0h.037v0Z" fill="url(#linear-gradient-33)" style="mix-blend-mode: multiply;isolation: isolate"/>
    <path id="Trazado_16060" data-name="Trazado 16060" d="M627.492,4783.122l4.072.1v.476l-3.8.19Z" fill="#ffffd9"/>
    <g id="Grupo_2694" data-name="Grupo 2694">
      <path id="Trazado_16061" data-name="Trazado 16061" d="M662.738,4784.082l.035,4.644h6.273l.213-4.842-6.257-.46Z" fill="#ffffd9"/>
      <path id="Trazado_16062" data-name="Trazado 16062" d="M668.939,4784.4l-.093,3.806h-5.333v-3.94l5,.125Z" fill="#761845"/>
      <path id="Trazado_16063" data-name="Trazado 16063" d="M663.011,4783.423l.117,5.3h-.355l-.13-4.9Z" fill="url(#linear-gradient-34)"/>
      <path id="Trazado_16064" data-name="Trazado 16064" d="M668.975,4784.4l-.129,3.8h-.434l.1-3.815Z" fill="url(#linear-gradient-35)"/>
    </g>
  </g>
</svg>
