<svg xmlns="http://www.w3.org/2000/svg" width="753" height="165.283" viewBox="0 0 753 165.283">
  <g id="Grupo_2660" data-name="Grupo 2660" transform="translate(-611 -3170.07)">
    <rect id="Rectángulo_579" data-name="Rectángulo 579" width="753" height="160.203" rx="20.102" transform="translate(611 3175.15)" fill="#fff0eb"/>
    <text id="Después_de_que_se_complete_un_intercambio_pagará_una_tarifa_de_transacción_muy_pequeña._Parte_de_esta_tarifa_de_transacción_se_reasignará_a_los_fondos_de_liquidez_y_una_cantidad_aún_menor_de_la_tarifa_se_enviará_a_la_tesorería_de_JavaSwap._Las_tarifas_exa" data-name="Después de que se complete un intercambio, pagará una tarifa de transacción muy pequeña. Parte de esta tarifa de transacción se reasignará a los fondos de liquidez y una cantidad aún menor de la tarifa se enviará a la tesorería de JavaSwap. Las tarifas exa" transform="translate(646.559 3204.88)" fill="#816c73" font-size="12" font-family="Poppins-Regular, Poppins" letter-spacing="-0.013em"><tspan x="0" y="13">Después de que se complete un intercambio, pagará una tarifa de transacción muy pequeña. Parte de esta tarifa </tspan><tspan x="0" y="37">de transacción se reasignará a los fondos de liquidez y una cantidad aún menor de la tarifa se enviará a la tesorería </tspan><tspan x="0" y="61">de JavaSwap. Las tarifas exactas cambian según la cantidad que esté intercambiando. La mejor manera de </tspan><tspan x="0" y="85">averiguar cuáles son sus tarifas es verificando los detalles antes de su Swap.</tspan></text>
    <g id="Grupo_2659" data-name="Grupo 2659">
      <path id="Trazado_15991" data-name="Trazado 15991" d="M633.765,3180.277l-2.855-2.637.155-3.883-3.859-.454-2.158-3.233-3.388,1.9-3.646-1.348-1.624,3.531-3.743,1.051.762,3.811L611,3182.067l2.856,2.635-.156,3.884,3.86.454,2.156,3.234,3.39-1.9,3.645,1.349,1.625-3.531,3.741-1.052-.761-3.811ZM620.4,3186.31l-5.112-4.444,1.417-1.631,3.6,3.136,7.005-6.88,1.513,1.542Z" fill="#d86d25"/>
    </g>
  </g>
</svg>
