<svg xmlns="http://www.w3.org/2000/svg" width="482.441" height="384.81" viewBox="0 0 482.441 384.81">
  <g id="Grupo_1094" data-name="Grupo 1094" transform="translate(-2811.015 -1638.23)">
    <rect id="Rectángulo_215" data-name="Rectángulo 215" width="482.441" height="370.63" rx="20.102" transform="translate(2811.015 1643.311)" fill="#fff0eb"/>
    <text id="_1._First_click_on_the_Lucky_Lotto_page._2._Click_on_Approve_JAVA_._3._Accept_the_contract_by_clicking_on_the_Confirm_button._4._Make_sure_you_read_the_warnings_first_then_click_I_understand_._5._Click_on_Buy_ticket_._6._Choose_the_number_of_tickets_y" data-name="1. First click on the Lucky Lotto page.
2. Click on “Approve JAVA”.
3. Accept the contract by clicking on the “Confirm” button.
4. Make sure you read the warnings first, then click “I understand”.
5. Click on “Buy ticket”.
6. Choose the number of tickets y" transform="translate(2856.323 1673.04)" fill="#444241" font-size="12" font-family="Poppins-Regular, Poppins" letter-spacing="-0.013em"><tspan x="0" y="13">1. First click on the Lucky Lotto page.</tspan><tspan x="0" y="52">2. Click on “Approve JAVA”.</tspan><tspan x="0" y="91">3. Accept the contract by clicking on the “Confirm” button.</tspan><tspan x="0" y="130">4. Make sure you read the warnings first, then click “I understand”.</tspan><tspan x="0" y="169">5. Click on “Buy ticket”.</tspan><tspan x="0" y="208">6. Choose the number of tickets you want to buy</tspan><tspan x="0" y="247" xml:space="preserve"> then click on “Confirm”.</tspan><tspan x="0" y="286">7. Click on “Confirm”.</tspan></text>
    <g id="Grupo_1093" data-name="Grupo 1093">
      <path id="Trazado_14070" data-name="Trazado 14070" d="M2833.78,1648.437l-2.855-2.636.155-3.883-3.859-.454-2.158-3.234-3.388,1.9-3.646-1.349-1.624,3.531-3.743,1.052.762,3.811-2.409,3.05,2.856,2.636-.156,3.884,3.86.453,2.156,3.235,3.39-1.9,3.645,1.349,1.625-3.531,3.741-1.051-.761-3.812Zm-13.364,6.033-5.112-4.444,1.417-1.631,3.6,3.136,7.005-6.879,1.513,1.541Z" fill="#d86d25"/>
    </g>
  </g>
</svg>
