<svg xmlns="http://www.w3.org/2000/svg" xmlns:xlink="http://www.w3.org/1999/xlink" width="35.917" height="35.917" viewBox="0 0 35.917 35.917">
  <defs>
    <linearGradient id="linear-gradient" y1="0.5" x2="1" y2="0.5" gradientUnits="objectBoundingBox">
      <stop offset="0" stop-color="#fbe778"/>
      <stop offset="0.032" stop-color="#fbe778"/>
      <stop offset="0.039" stop-color="#fbe677"/>
      <stop offset="0.694" stop-color="#fcb332"/>
      <stop offset="1" stop-color="#fd9f18"/>
    </linearGradient>
  </defs>
  <g id="Grupo_2868" data-name="Grupo 2868" transform="translate(-627.2 -5517.912)">
    <circle id="Elipse_132" data-name="Elipse 132" cx="17.959" cy="17.959" r="17.959" transform="translate(627.2 5517.912)" fill="url(#linear-gradient)"/>
    <g id="Trazado_16650" data-name="Trazado 16650" fill="#fff" stroke-miterlimit="10">
      <path d="M 649.5603637695312 5542.01953125 C 649.5477905273438 5542.01953125 649.5301513671875 5542.0087890625 649.5175170898438 5541.99951171875 L 646.411865234375 5539.7421875 C 646.0448608398438 5539.4755859375 645.6117553710938 5539.3349609375 645.1589965820312 5539.3349609375 C 644.7062377929688 5539.3349609375 644.2731323242188 5539.4755859375 643.906494140625 5539.7421875 L 640.8001708984375 5541.99951171875 C 640.787841796875 5542.0087890625 640.7701416015625 5542.01953125 640.7575073242188 5542.01953125 C 640.7364501953125 5542.01953125 640.7008666992188 5542.001953125 640.6802368164062 5541.9736328125 C 640.6707153320312 5541.96044921875 640.663818359375 5541.95068359375 640.6771850585938 5541.90966796875 L 641.8632202148438 5538.2578125 C 642.14892578125 5537.37744140625 641.8383178710938 5536.42041015625 641.0904541015625 5535.8759765625 L 637.9837646484375 5533.61865234375 C 637.95703125 5533.59912109375 637.9362182617188 5533.583984375 637.9539794921875 5533.529296875 C 637.9718017578125 5533.474609375 637.9974975585938 5533.474609375 638.030029296875 5533.474609375 L 641.8699951171875 5533.474609375 C 642.7954711914062 5533.474609375 643.6096801757812 5532.8828125 643.8961181640625 5532.00244140625 L 645.0831298828125 5528.35009765625 C 645.0931396484375 5528.3193359375 645.10107421875 5528.294921875 645.1589965820312 5528.294921875 C 645.2169189453125 5528.294921875 645.224853515625 5528.3193359375 645.23486328125 5528.35009765625 L 646.4218139648438 5532.001953125 C 646.7083129882812 5532.8828125 647.5225219726562 5533.474609375 648.447998046875 5533.474609375 L 652.2880249023438 5533.474609375 C 652.3203125 5533.474609375 652.3458251953125 5533.474609375 652.3637084960938 5533.52978515625 C 652.3814697265625 5533.58447265625 652.3607788085938 5533.599609375 652.3346557617188 5533.61865234375 L 649.228271484375 5535.87548828125 C 648.480712890625 5536.419921875 648.1694946289062 5537.3759765625 648.4530639648438 5538.25537109375 L 649.640869140625 5541.90966796875 C 649.6541748046875 5541.95068359375 649.6473388671875 5541.96044921875 649.6378173828125 5541.97314453125 C 649.6170654296875 5542.001953125 649.5814819335938 5542.01953125 649.5603637695312 5542.01953125 Z" stroke="none"/>
      <path d="M 645.1589965820312 5531.43408203125 L 644.8712768554688 5532.3193359375 C 644.447021484375 5533.62353515625 643.2409057617188 5534.5 641.8699951171875 5534.5 L 640.9410400390625 5534.5 L 641.6939697265625 5535.046875 C 642.8015747070312 5535.853515625 643.2615966796875 5537.2705078125 642.8385009765625 5538.57421875 L 642.551025390625 5539.45947265625 L 643.3040161132812 5538.912109375 C 643.8469848632812 5538.51806640625 644.4884033203125 5538.3095703125 645.1589965820312 5538.3095703125 C 645.82958984375 5538.3095703125 646.4710083007812 5538.51806640625 647.0147094726562 5538.91259765625 L 647.7659912109375 5539.458984375 L 647.4771728515625 5538.5703125 C 647.0573120117188 5537.26806640625 647.5181884765625 5535.85205078125 648.62548828125 5535.0458984375 L 649.376953125 5534.5 L 648.447998046875 5534.5 C 647.0770874023438 5534.5 645.8709716796875 5533.62353515625 645.4466552734375 5532.31884765625 L 645.1589965820312 5531.43408203125 M 645.1589965820312 5527.26953125 C 645.601806640625 5527.26953125 646.0445556640625 5527.52392578125 646.2100219726562 5528.033203125 L 647.39697265625 5531.68505859375 C 647.5449829101562 5532.14013671875 647.968994140625 5532.44921875 648.447998046875 5532.44921875 L 652.2880249023438 5532.44921875 C 653.3579711914062 5532.44921875 653.8040161132812 5533.81884765625 652.93701171875 5534.4482421875 L 649.8309936523438 5536.705078125 C 649.4439697265625 5536.98681640625 649.281982421875 5537.48486328125 649.4290161132812 5537.94091796875 L 650.6160278320312 5541.5927734375 C 650.947021484375 5542.61083984375 649.7806396484375 5543.45751953125 648.9149780273438 5542.8291015625 L 645.8090209960938 5540.57177734375 C 645.4209594726562 5540.28955078125 644.8970336914062 5540.28955078125 644.5089721679688 5540.57177734375 L 641.4030151367188 5542.8291015625 C 640.5372314453125 5543.45947265625 639.3709716796875 5542.61083984375 639.7020263671875 5541.5927734375 L 640.8880004882812 5537.94091796875 C 641.0360107421875 5537.48486328125 640.8740234375 5536.98681640625 640.4869995117188 5536.705078125 L 637.3809814453125 5534.4482421875 C 636.5139770507812 5533.81884765625 636.958984375 5532.44921875 638.030029296875 5532.44921875 L 641.8699951171875 5532.44921875 C 642.3489990234375 5532.44921875 642.7730102539062 5532.14013671875 642.9210205078125 5531.68505859375 L 644.1079711914062 5528.033203125 C 644.2734985351562 5527.52392578125 644.7162475585938 5527.26953125 645.1589965820312 5527.26953125 Z" stroke="none" fill="#f2f1f0"/>
    </g>
  </g>
</svg>
