<svg xmlns="http://www.w3.org/2000/svg" xmlns:xlink="http://www.w3.org/1999/xlink" width="31.193" height="53.964" viewBox="0 0 31.193 53.964">
  <defs>
    <linearGradient id="linear-gradient" x1="171.741" y1="262.034" x2="171.204" y2="262.701" gradientUnits="objectBoundingBox">
      <stop offset="0" stop-color="#ffa018"/>
      <stop offset="0.302" stop-color="#feb332"/>
      <stop offset="0.947" stop-color="#fce675"/>
      <stop offset="0.968" stop-color="#fce878"/>
    </linearGradient>
    <linearGradient id="linear-gradient-2" x1="170.673" y1="262.801" x2="171.8" y2="262.034" gradientUnits="objectBoundingBox">
      <stop offset="0" stop-color="#ffe6b9" stop-opacity="0"/>
      <stop offset="0.156" stop-color="#ffebc8" stop-opacity="0.227"/>
      <stop offset="0.359" stop-color="#fff2db" stop-opacity="0.498"/>
      <stop offset="0.543" stop-color="#fff7eb" stop-opacity="0.714"/>
      <stop offset="0.7" stop-color="#fffbf5" stop-opacity="0.871"/>
      <stop offset="0.825" stop-color="#fffefc" stop-opacity="0.965"/>
      <stop offset="0.901" stop-color="#fff"/>
    </linearGradient>
    <linearGradient id="linear-gradient-3" x1="-115.082" y1="170.903" x2="-114.852" y2="170.132" gradientUnits="objectBoundingBox">
      <stop offset="0" stop-color="#ffb817"/>
      <stop offset="0.989" stop-color="#ffffbc"/>
    </linearGradient>
    <linearGradient id="linear-gradient-4" x1="234.529" y1="261.765" x2="231.944" y2="262.198" gradientUnits="objectBoundingBox">
      <stop offset="0" stop-color="#f1c73d"/>
      <stop offset="0.039" stop-color="#f1c73d"/>
      <stop offset="0.111" stop-color="#e89f2e"/>
      <stop offset="0.426" stop-color="#dc762b"/>
      <stop offset="0.517" stop-color="#d06b26"/>
      <stop offset="0.679" stop-color="#b1501a"/>
      <stop offset="0.721" stop-color="#a84817"/>
      <stop offset="0.836" stop-color="#aa4917"/>
      <stop offset="0.888" stop-color="#b1501a"/>
      <stop offset="0.928" stop-color="#be5b1f"/>
      <stop offset="0.961" stop-color="#d06b26"/>
      <stop offset="0.977" stop-color="#dc762b"/>
      <stop offset="0.986" stop-color="#dc782b"/>
      <stop offset="0.992" stop-color="#df802b"/>
      <stop offset="0.997" stop-color="#e38f2c"/>
      <stop offset="1" stop-color="#e89f2e"/>
    </linearGradient>
    <linearGradient id="linear-gradient-5" x1="214.969" y1="264.054" x2="216.379" y2="263.289" gradientUnits="objectBoundingBox">
      <stop offset="0" stop-color="#ffe6b9" stop-opacity="0"/>
      <stop offset="0.901" stop-color="#fff"/>
    </linearGradient>
  </defs>
  <g id="Grupo_2565" data-name="Grupo 2565" transform="translate(-632.86 -2707.98)" style="isolation: isolate">
    <ellipse id="Elipse_94" data-name="Elipse 94" cx="12.617" cy="26.74" rx="12.617" ry="26.74" transform="translate(637.778 2708.474) rotate(-1.122)" fill="url(#linear-gradient)"/>
    <path id="Trazado_15813" data-name="Trazado 15813" d="M663.347,2740.466c1.215-14.45-3.366-28.627-10.232-31.667s-13.417,6.209-14.632,20.659,3.367,28.628,10.233,31.667S662.132,2754.916,663.347,2740.466Zm-24.693-10.972a41.1,41.1,0,0,1,3.088-13.062h0c2.894-6.492,7.125-9.26,11.317-7.4,6.782,3,11.32,17.09,10.117,31.4a41.1,41.1,0,0,1-3.087,13.063c-2.894,6.492-7.125,9.26-11.317,7.4C641.99,2757.894,637.451,2743.807,638.654,2729.494Z" opacity="0.7" fill="url(#linear-gradient-2)" style="mix-blend-mode: overlay;isolation: isolate"/>
    <g id="Grupo_2564" data-name="Grupo 2564">
      <g id="Grupo_2562" data-name="Grupo 2562" opacity="0.75" style="mix-blend-mode: multiply;isolation: isolate">
        <path id="Trazado_15814" data-name="Trazado 15814" d="M649.43,2758.949c-6.037-2.672-10.075-15.237-9-28.013s6.859-21,12.9-18.323,10.073,15.242,9,28.017S655.467,2761.622,649.43,2758.949Zm.177-2.1c5.488,2.43,10.746-5.04,11.722-16.654s-2.692-23.042-8.18-25.471-10.749,5.044-11.725,16.658S644.119,2754.414,649.607,2756.844Zm10.746-26.006q-.911-1.314-1.869-2.7a.106.106,0,0,0-.05-.045.059.059,0,0,0-.052.012c-.764.51-1.547,1.029-2.351,1.564-.1.064-.082.021-.1.216q-.167,2.211-.333,4.414c0,.048-.01.095-.017.159-.025-.026-.044-.041-.06-.061q-.435-.537-.879-1.088l-2.245-2.781q-1.272-1.573-2.624-3.25c-.631-.782-1.277-1.58-1.936-2.4a.144.144,0,0,0-.068-.053.1.1,0,0,0-.079.013q-1.489.776-3.067,1.59c-.113.058-.226.118-.34.173a.233.233,0,0,1-.079.012l-1.2,17.624a.428.428,0,0,1,.089.047q1.591,1.329,3.079,2.575c.017.015.034.028.059.048l3.238-2.631.409-5.676c.165.159.313.322.464.477s.3.308.444.461l.442.459.43.446.428.445.416.432,2.724-2.191c0,.058,0,.1-.005.139q-.041.551-.083,1.1l-.282,3.747c0,.029,0,.058-.007.087a.152.152,0,0,0,.042.151q.834.852,1.63,1.674c.148.152.295.3.442.454.014.015.029.029.045.044l.476-.452,1.849-1.754.005,0,1.052-13.427A.645.645,0,0,1,660.353,2730.838Zm-15.069-4.147c.82-.431,1.648-.866,2.446-1.288.48.592.959,1.179,1.415,1.739l.433.53,1.384,1.7,1.254,1.54,1.538,1.886.721.885.188.231c.124.152.247.3.37.454l-2.13,1.582-7.9-9.11Zm3.883,17.3-1.484,1.194-1.093.88.664-9.442,2.281,2.242Zm5.811-5.149-2.115,1.685.274-3.715,2.115-1.6Zm2.223-9.457,1.2-.8c.52.747,1.036,1.485,1.529,2.192l-1.854,1.334-1.671-2.183Zm1.929,14.691-1.505,1.416-.231.217-.125.118.994-12.911,1.845-1.356Z" fill="#967272"/>
      </g>
      <g id="Grupo_2563" data-name="Grupo 2563">
        <path id="Trazado_15815" data-name="Trazado 15815" d="M649.144,2758.09c-6.037-2.673-10.076-15.238-9-28.013s6.86-21,12.9-18.323,10.073,15.241,9,28.017S655.181,2760.763,649.144,2758.09Zm.177-2.106c5.488,2.43,10.746-5.04,11.722-16.654s-2.693-23.041-8.181-25.471-10.749,5.044-11.725,16.658S643.833,2753.555,649.321,2755.984Zm10.746-26.006q-.91-1.314-1.87-2.7a.106.106,0,0,0-.049-.045.06.06,0,0,0-.053.013c-.763.509-1.547,1.028-2.35,1.564-.1.063-.083.021-.1.215q-.168,2.211-.334,4.414c0,.048-.01.095-.016.16-.026-.026-.044-.042-.061-.062l-.878-1.088-2.246-2.781q-1.27-1.574-2.624-3.249-.947-1.173-1.936-2.4a.151.151,0,0,0-.068-.054.1.1,0,0,0-.078.013q-1.491.775-3.068,1.59c-.112.059-.225.118-.339.174a.266.266,0,0,1-.08.012l-1.2,17.623a.5.5,0,0,1,.089.047L645.89,2746l.059.048,3.238-2.632.409-5.676c.165.159.314.322.465.477s.3.308.443.461l.442.459.43.447.429.444.416.432,2.723-2.191c0,.059,0,.1,0,.14-.028.367-.056.733-.083,1.1l-.283,3.747a.817.817,0,0,1-.007.087.154.154,0,0,0,.042.151q.834.852,1.63,1.674c.148.153.3.3.443.455.014.015.029.028.044.043l.476-.451,1.85-1.754.005,0,1.051-13.427A.534.534,0,0,1,660.067,2729.978ZM645,2725.832c.821-.432,1.649-.867,2.447-1.289.48.592.958,1.179,1.415,1.739l.432.53,1.385,1.7,1.254,1.54,1.537,1.887.721.884.188.231.371.455-2.131,1.581-7.9-9.11Zm3.883,17.294-1.484,1.2-1.093.879.664-9.442,2.282,2.242Zm5.811-5.148-2.115,1.684.275-3.714,2.114-1.6Zm2.224-9.458,1.2-.8c.52.747,1.035,1.486,1.529,2.192l-1.855,1.334-1.67-2.183Zm1.928,14.691-1.505,1.416-.231.218-.125.118.995-12.911,1.844-1.356Z" fill="url(#linear-gradient-3)"/>
      </g>
    </g>
    <path id="Trazado_15816" data-name="Trazado 15816" d="M642.628,2760.9l.01,0c.214.119.429.227.648.324l.047.02c.1.043.2.073.293.111.126.048.253.1.378.141l.028.011c.094.029.187.046.28.071.129.035.258.073.386.1l.035.009c.089.018.177.023.265.037.131.02.263.043.394.054.015,0,.03.005.045.006a5.779,5.779,0,0,0,.584.018l5.43-.107a5.719,5.719,0,0,1-.629-.023c-.131-.011-.263-.034-.394-.055-.1-.015-.2-.025-.3-.045-.128-.026-.257-.064-.386-.1-.1-.027-.205-.049-.308-.082-.125-.04-.252-.093-.378-.142s-.226-.08-.34-.131c-.218-.1-.434-.205-.648-.323-.037-.021-.074-.047-.111-.068-.187-.108-.373-.222-.556-.347s-.34-.238-.507-.368l-.1-.08c-.179-.143-.357-.291-.532-.449l-.028-.027c-.162-.147-.321-.3-.48-.464-.045-.046-.091-.092-.136-.14-.168-.175-.335-.356-.5-.546l-.007-.008c-.165-.193-.327-.394-.488-.6-.051-.066-.1-.134-.152-.2q-.159-.211-.315-.432c-.083-.116-.164-.234-.244-.354s-.175-.26-.26-.394-.158-.25-.236-.377c-.093-.151-.184-.3-.275-.459-.049-.086-.1-.172-.148-.259-.109-.193-.216-.392-.322-.592-.035-.067-.071-.132-.106-.2q-.207-.4-.407-.822l-.087-.191c-.095-.2-.189-.412-.281-.622-.166-.38-.328-.766-.484-1.163l-.019-.052c-.149-.382-.292-.774-.431-1.171-.043-.126-.086-.254-.129-.381-.1-.307-.2-.618-.3-.933-.041-.132-.082-.263-.122-.4-.12-.4-.237-.812-.347-1.228-.009-.034-.019-.067-.028-.1-.131-.5-.253-1.008-.369-1.524-.03-.131-.059-.263-.088-.4-.1-.481-.2-.967-.295-1.46-.009-.049-.019-.1-.028-.145-.017-.094-.032-.189-.049-.284-.051-.29-.1-.582-.148-.876-.022-.143-.043-.288-.064-.431q-.052-.344-.1-.69-.109-.8-.2-1.617c-.013-.119-.023-.24-.035-.36-.037-.378-.071-.756-.1-1.138-.014-.176-.026-.354-.038-.531-.021-.3-.039-.61-.055-.916-.009-.185-.019-.37-.026-.556-.013-.3-.021-.592-.029-.89,0-.181-.01-.362-.013-.544-.005-.3-.005-.611-.005-.918,0-.166,0-.332,0-.5,0-.34.012-.681.021-1.023,0-.127,0-.255.009-.382q.024-.7.066-1.41.039-.665.095-1.331c.012-.138.027-.273.039-.41.032-.347.066-.692.1-1.033l.051-.431q.06-.5.129-.992c.017-.123.033-.247.051-.369.067-.451.138-.9.215-1.334.012-.069.025-.136.038-.2.072-.4.15-.8.231-1.188.024-.112.047-.224.071-.334q.158-.732.336-1.437c.045-.177.092-.352.138-.526.035-.13.069-.262.105-.39.054-.2.112-.387.168-.578.034-.114.066-.229.1-.342.024-.078.05-.153.074-.231q.128-.406.262-.8c.04-.116.081-.23.122-.345.078-.221.157-.439.239-.654.043-.116.087-.23.132-.343.1-.243.192-.48.291-.715.037-.086.072-.174.109-.259q.2-.469.417-.916c.026-.055.054-.107.081-.161q.177-.363.361-.71c.049-.092.1-.182.148-.273.107-.194.215-.385.325-.571.051-.086.1-.173.152-.258.133-.217.267-.428.4-.634.027-.041.053-.084.08-.124.164-.243.331-.475.5-.7.047-.062.1-.121.143-.182q.188-.243.38-.473c.059-.07.118-.138.177-.206q.192-.218.387-.421c.052-.055.1-.112.158-.166.181-.183.364-.358.55-.522.021-.019.042-.035.063-.053q.249-.216.5-.408c.06-.047.121-.09.182-.134q.2-.147.409-.279c.064-.041.128-.082.192-.121.155-.093.31-.18.467-.26.043-.022.085-.048.128-.069q.3-.145.6-.261c.05-.019.1-.034.153-.052.153-.055.307-.1.462-.146l.206-.051c.147-.035.294-.063.441-.087.064-.01.128-.022.192-.03a6.089,6.089,0,0,1,.628-.049l-5.43.106a6.09,6.09,0,0,0-.628.049c-.064.008-.128.02-.192.031-.147.023-.294.052-.441.086l-.206.051c-.155.043-.309.092-.462.146-.051.018-.1.033-.154.053q-.3.114-.6.261c-.043.021-.086.046-.129.068-.156.081-.311.167-.465.26-.065.039-.129.08-.193.121-.137.089-.274.182-.409.28-.061.044-.122.087-.182.133q-.254.192-.5.408c-.022.018-.044.035-.065.054-.186.163-.369.339-.55.521-.053.054-.1.111-.158.166-.13.136-.259.276-.387.422-.059.067-.118.136-.177.205-.128.153-.255.311-.38.473-.048.061-.1.12-.143.183q-.254.337-.5.7c-.027.04-.053.083-.08.124-.137.206-.271.417-.4.635-.051.084-.1.171-.152.257q-.165.279-.325.572c-.05.09-.1.18-.148.272-.123.232-.244.47-.362.712-.027.054-.054.1-.08.159q-.213.447-.417.917c-.037.084-.072.171-.108.257-.1.235-.2.473-.293.717-.02.053-.043.1-.063.155s-.045.125-.068.186q-.121.323-.24.656c-.04.115-.081.228-.121.344q-.135.4-.262.8c-.02.063-.042.124-.061.187l-.013.044c-.035.112-.067.228-.1.342-.057.191-.114.382-.168.577-.036.129-.07.261-.1.391-.04.15-.082.3-.121.451-.006.024-.011.05-.017.074q-.179.7-.336,1.437c-.011.048-.023.092-.033.14-.014.064-.024.13-.038.194q-.121.586-.232,1.191c-.009.051-.02.1-.029.151l-.008.049c-.077.438-.148.884-.215,1.335-.006.039-.013.076-.018.115-.012.084-.022.17-.033.254q-.069.492-.129.994c-.01.08-.022.157-.031.237-.007.063-.012.128-.019.191-.039.342-.073.689-.105,1.037-.008.084-.018.164-.025.248l-.014.159q-.054.656-.094,1.31v.021q-.042.706-.066,1.41l0,.033c0,.117,0,.233-.007.35-.01.341-.018.682-.021,1.022,0,.029,0,.059,0,.088,0,.137,0,.274,0,.411,0,.307,0,.614.005.919,0,.051,0,.1,0,.154,0,.13.009.259.012.389.008.3.016.6.029.891,0,.076,0,.154.007.23.005.109.014.216.019.325q.024.461.055.918c.007.1.01.205.018.306.005.075.014.148.02.223q.043.572.1,1.137c.01.095.016.191.025.285,0,.026.007.051.01.077.057.544.123,1.082.195,1.616.007.047.011.095.018.141.025.185.055.367.082.551.021.143.042.287.064.429.047.295.1.587.148.878.017.094.032.189.049.283l.006.037c.007.036.015.071.022.107.091.494.191.98.295,1.461l.087.394c.117.515.238,1.026.37,1.525l0,.014c.008.029.017.057.025.086q.165.624.347,1.229c.04.133.081.264.121.4q.147.474.3.935c.043.126.085.253.129.379.139.4.282.789.431,1.171l.019.052c.156.4.318.784.484,1.163.017.039.033.081.05.121.076.17.153.335.231.5.029.064.058.129.087.191q.2.42.407.822c.035.067.071.132.106.2q.159.3.322.593c.049.087.1.172.148.258s.092.163.139.242.091.144.136.218c.078.127.156.253.235.376s.173.265.261.394.161.239.244.355c.037.052.072.107.109.159.068.093.137.181.206.272.051.067.1.135.152.2.16.206.322.407.487.6l.009.01h0c.163.19.329.37.5.545l.136.139c.051.051.1.1.151.155q.164.16.33.31l.027.026q.189.171.381.331c.05.041.1.079.151.118.033.027.067.054.1.08.151.118.3.232.458.339.016.011.033.019.049.03.183.124.369.238.556.346C642.561,2760.86,642.594,2760.884,642.628,2760.9Z" fill="url(#linear-gradient-4)"/>
    <path id="Trazado_15817" data-name="Trazado 15817" d="M644.762,2757.875,641,2717.734a25.949,25.949,0,0,1,1.723-3.668l4.314,46.059A12.707,12.707,0,0,1,644.762,2757.875Zm8.907,3.358-4.941-52.745a7.432,7.432,0,0,0-1.976.964l4.893,52.236A6.215,6.215,0,0,0,653.669,2761.233Zm-3.757.3a6.3,6.3,0,0,0,.928.147L646,2710.016a10.908,10.908,0,0,0-.843.773Zm11.151-9.977-3.66-39.071a11.245,11.245,0,0,0-4.288-3.682c-.061-.027-.121-.045-.181-.07l4.627,49.4A22.826,22.826,0,0,0,661.063,2751.552Z" opacity="0.7" fill="url(#linear-gradient-5)" style="mix-blend-mode: overlay;isolation: isolate"/>
  </g>
</svg>
