<svg xmlns="http://www.w3.org/2000/svg" xmlns:xlink="http://www.w3.org/1999/xlink" width="36.941" height="29.412" viewBox="0 0 36.941 29.412">
  <defs>
    <clipPath id="clip-path">
      <rect id="Rectángulo_584" data-name="Rectángulo 584" width="14.127" height="8.667" transform="translate(634.947 3389.741)" fill="none"/>
    </clipPath>
    <clipPath id="clip-path-2">
      <rect id="Rectángulo_585" data-name="Rectángulo 585" width="13.839" height="4.376" transform="translate(635.021 3386.728)" fill="none"/>
    </clipPath>
  </defs>
  <g id="Grupo_2668" data-name="Grupo 2668" transform="translate(-623.588 -3382.177)">
    <rect id="Rectángulo_580" data-name="Rectángulo 580" width="36.941" height="20.235" rx="4.235" transform="translate(623.588 3382.177)" fill="#9b2244"/>
    <rect id="Rectángulo_581" data-name="Rectángulo 581" width="26.824" height="4" rx="2" transform="translate(628.647 3407.588)" fill="#9b2244"/>
    <rect id="Rectángulo_582" data-name="Rectángulo 582" width="4.059" height="5.176" transform="translate(640.029 3402.412)" fill="#9b2244"/>
    <g id="Rectángulo_583" data-name="Rectángulo 583" transform="translate(626 3384.657)" fill="#fff" stroke="#f2f1f0" stroke-miterlimit="10" stroke-width="1.709">
      <rect width="32.118" height="15.273" rx="2.127" stroke="none"/>
      <rect x="0.855" y="0.855" width="30.408" height="13.564" rx="1.272" fill="none"/>
    </g>
    <g id="Grupo_2667" data-name="Grupo 2667">
      <path id="Trazado_15992" data-name="Trazado 15992" d="M634.973,3392.09c-.32-2.384,2.544-4.738,6.4-5.258,3.669-.494,6.914.85,7.495,3.038a2.7,2.7,0,0,1,.069.339c.008.046.016.092.023.138,1.541,9.1-12.66,11.581-13.987,1.743" fill="#986529"/>
      <g id="Grupo_2663" data-name="Grupo 2663" opacity="0.3">
        <g id="Grupo_2662" data-name="Grupo 2662">
          <g id="Grupo_2661" data-name="Grupo 2661" clip-path="url(#clip-path)">
            <path id="Trazado_15993" data-name="Trazado 15993" d="M634.973,3392.116a3.218,3.218,0,0,1,.7-2.375c1.644,7.311,10.974,6.822,13.387,1.5.5,8.33-12.774,10.366-14.088.872" fill="#570000"/>
          </g>
        </g>
      </g>
      <g id="Grupo_2666" data-name="Grupo 2666" opacity="0.6">
        <g id="Grupo_2665" data-name="Grupo 2665">
          <g id="Grupo_2664" data-name="Grupo 2664" clip-path="url(#clip-path-2)">
            <path id="Trazado_15994" data-name="Trazado 15994" d="M648.86,3389.847l-.928.11c-1.157-1.591-3.949-2.47-7.036-2.042-2.7.374-4.9,1.643-5.875,3.189.456-2.008,3.028-3.811,6.333-4.268,3.667-.507,6.916.825,7.506,3.011" fill="#fff"/>
          </g>
        </g>
      </g>
      <path id="Trazado_15995" data-name="Trazado 15995" d="M634.386,3391.913c-.142-2.629,2.809-5.072,6.89-5.637a10.158,10.158,0,0,1,5.415.624,4.3,4.3,0,0,1,2.8,3.2,7.048,7.048,0,0,1-2.362,7.02,8.313,8.313,0,0,1-8.1,1.339,7.406,7.406,0,0,1-4.616-6.26h0c-.013-.093-.022-.187-.027-.28m.587.2v0Zm13.526-.806a7.8,7.8,0,0,0-.125-1.019l-.005-.028a3.218,3.218,0,0,0-2.135-2.329,9.027,9.027,0,0,0-4.8-.539c-3.478.481-6.179,2.6-5.9,4.644a6.319,6.319,0,0,0,3.9,5.361,7.152,7.152,0,0,0,6.966-1.153,5.8,5.8,0,0,0,2.1-4.937" fill="#570000"/>
      <path id="Trazado_15996" data-name="Trazado 15996" d="M634.409,3392.146a.565.565,0,0,1,1.124-.107c.282,2.035,3.459,3.348,6.938,2.867s6.181-2.614,5.9-4.643a.565.565,0,0,1,1.12-.155c.379,2.732-2.637,5.333-6.864,5.918s-7.833-1.1-8.212-3.833c0-.016,0-.031,0-.047" fill="#570000"/>
      <path id="Trazado_15997" data-name="Trazado 15997" d="M640.611,3389.616c.065.465-.145.879-.47.924s-.641-.294-.706-.759.145-.879.47-.924.64.294.706.759" fill="#570000"/>
      <path id="Trazado_15998" data-name="Trazado 15998" d="M643.74,3389c.065.465-.145.879-.47.924s-.641-.294-.706-.759.145-.878.47-.924.64.294.706.759" fill="#570000"/>
      <path id="Trazado_15999" data-name="Trazado 15999" d="M637.285,3387.14a.439.439,0,0,1-.249-.076.444.444,0,0,1-.117-.617,3,3,0,0,1,2.511-1.3.444.444,0,0,1-.005.888h-.019a2.1,2.1,0,0,0-1.754.915.442.442,0,0,1-.367.193" fill="#570000"/>
      <path id="Trazado_16000" data-name="Trazado 16000" d="M644.228,3385.786a.434.434,0,0,1-.245-.074,2.1,2.1,0,0,0-1.969-.189l-.015.007a.444.444,0,0,1-.344-.818,3,3,0,0,1,2.819.262.443.443,0,0,1-.246.812" fill="#570000"/>
      <path id="Trazado_16001" data-name="Trazado 16001" d="M643.574,3388.851c0,.175-.1.316-.229.316s-.228-.141-.228-.316.1-.316.228-.316.229.141.229.316" fill="#fff"/>
      <path id="Trazado_16002" data-name="Trazado 16002" d="M640.479,3389.4c0,.175-.1.316-.228.316s-.228-.141-.228-.316.1-.316.228-.316.228.141.228.316" fill="#fff"/>
      <path id="Trazado_16003" data-name="Trazado 16003" d="M641.228,3393.042a6.562,6.562,0,0,1-3.5-.841.517.517,0,0,1,.692-.769,6.406,6.406,0,0,0,2.734.575,5.413,5.413,0,0,0,4.233-1.764.518.518,0,0,1,.777.684,6.3,6.3,0,0,1-4.521,2.1c-.141.007-.282.011-.42.011m-2.8-1.606.005,0-.005,0" fill="#570000"/>
      <path id="Trazado_16004" data-name="Trazado 16004" d="M637.778,3392.711h-.013a.442.442,0,0,1-.431-.455,1.578,1.578,0,0,1,.579-1.042.443.443,0,0,1,.569.68.781.781,0,0,0-.261.386.443.443,0,0,1-.443.431" fill="#570000"/>
    </g>
  </g>
</svg>
