<svg xmlns="http://www.w3.org/2000/svg" xmlns:xlink="http://www.w3.org/1999/xlink" width="42.744" height="68.175" viewBox="0 0 42.744 68.175">
  <defs>
    <clipPath id="clip-path">
      <rect id="Rectángulo_545" data-name="Rectángulo 545" width="14.995" height="10.466" transform="matrix(0.131, -0.991, 0.991, 0.131, 650.24, 2229.824)" fill="none"/>
    </clipPath>
    <clipPath id="clip-path-2">
      <rect id="Rectángulo_546" data-name="Rectángulo 546" width="0.265" height="0.609" transform="matrix(0.131, -0.991, 0.991, 0.131, 649.968, 2207.076)" fill="none"/>
    </clipPath>
    <clipPath id="clip-path-3">
      <rect id="Rectángulo_547" data-name="Rectángulo 547" width="7.233" height="15.966" transform="matrix(0.131, -0.991, 0.991, 0.131, 631.674, 2238.743)" fill="none"/>
    </clipPath>
    <clipPath id="clip-path-4">
      <rect id="Rectángulo_548" data-name="Rectángulo 548" width="28.152" height="11.269" transform="matrix(0.131, -0.991, 0.991, 0.131, 637.86, 2236.615)" fill="none"/>
    </clipPath>
    <linearGradient id="linear-gradient" x1="-82.054" y1="209.192" x2="-82.591" y2="209.86" gradientUnits="objectBoundingBox">
      <stop offset="0.032" stop-color="#fce878"/>
      <stop offset="0.053" stop-color="#fce675"/>
      <stop offset="0.698" stop-color="#feb332"/>
      <stop offset="1" stop-color="#ffa018"/>
    </linearGradient>
    <linearGradient id="linear-gradient-2" x1="-43.845" y1="318.387" x2="-43.245" y2="317.223" gradientUnits="objectBoundingBox">
      <stop offset="0" stop-color="#ffe6b9" stop-opacity="0"/>
      <stop offset="0.156" stop-color="#ffebc8" stop-opacity="0.227"/>
      <stop offset="0.359" stop-color="#fff2db" stop-opacity="0.498"/>
      <stop offset="0.543" stop-color="#fff7eb" stop-opacity="0.714"/>
      <stop offset="0.7" stop-color="#fffbf5" stop-opacity="0.871"/>
      <stop offset="0.825" stop-color="#fffefc" stop-opacity="0.965"/>
      <stop offset="0.901" stop-color="#fff"/>
    </linearGradient>
    <linearGradient id="linear-gradient-3" x1="0.415" y1="1.315" x2="0.537" y2="0.143" gradientUnits="objectBoundingBox">
      <stop offset="0" stop-color="#ffb817"/>
      <stop offset="0.989" stop-color="#ffffbc"/>
    </linearGradient>
    <linearGradient id="linear-gradient-4" x1="-41.196" y1="309.192" x2="-42.169" y2="309.834" gradientUnits="objectBoundingBox">
      <stop offset="0" stop-color="#f1c73d"/>
      <stop offset="0.039" stop-color="#f1c73d"/>
      <stop offset="0.111" stop-color="#e89f2e"/>
      <stop offset="0.426" stop-color="#dc762b"/>
      <stop offset="0.517" stop-color="#d06b26"/>
      <stop offset="0.679" stop-color="#b1501a"/>
      <stop offset="0.721" stop-color="#a84817"/>
      <stop offset="0.836" stop-color="#aa4917"/>
      <stop offset="0.888" stop-color="#b1501a"/>
      <stop offset="0.928" stop-color="#be5b1f"/>
      <stop offset="0.961" stop-color="#d06b26"/>
      <stop offset="0.977" stop-color="#dc762b"/>
      <stop offset="0.986" stop-color="#dc782b"/>
      <stop offset="0.992" stop-color="#df802b"/>
      <stop offset="0.997" stop-color="#e38f2c"/>
      <stop offset="1" stop-color="#e89f2e"/>
    </linearGradient>
    <linearGradient id="linear-gradient-5" x1="-43.861" y1="319.623" x2="-43.264" y2="318.463" gradientUnits="objectBoundingBox">
      <stop offset="0" stop-color="#ffe6b9" stop-opacity="0"/>
      <stop offset="0.901" stop-color="#fff"/>
    </linearGradient>
  </defs>
  <g id="Grupo_2561" data-name="Grupo 2561" transform="translate(-621.482 -2173.278)">
    <g id="Grupo_2556" data-name="Grupo 2556">
      <ellipse id="Elipse_90" data-name="Elipse 90" cx="18.768" cy="3.036" rx="18.768" ry="3.036" transform="translate(621.482 2235.381)" fill="#f2d9d0"/>
      <g id="Grupo_2548" data-name="Grupo 2548">
        <g id="Grupo_2547" data-name="Grupo 2547">
          <path id="Trazado_15788" data-name="Trazado 15788" d="M661.1,2216.132a8.116,8.116,0,0,0-7.53-4.9l-2.111.023-.568,13.6-.21,5.03,3.09-.034a8.111,8.111,0,0,0,8.014-8.19l-.026-2.412a8.066,8.066,0,0,0-.659-3.115m-9.58,10.2,0-1.181L651.5,2214.8l2.111-.023a4.565,4.565,0,0,1,4.609,4.511l.026,2.411a4.565,4.565,0,0,1-4.51,4.61Z" fill="#f0f0f0"/>
          <g id="Grupo_2536" data-name="Grupo 2536" opacity="0.3">
            <g id="Grupo_2535" data-name="Grupo 2535">
              <g id="Grupo_2534" data-name="Grupo 2534" clip-path="url(#clip-path)">
                <path id="Trazado_15789" data-name="Trazado 15789" d="M661.764,2219.247l.026,2.412a8.111,8.111,0,0,1-8.014,8.19l-3.09.034.21-5.03c.21.093.421.193.627.3l0,1.181,2.008-.022.085.056c6.046.018,8.174-4.538,7.443-10.21l.044-.023a8.066,8.066,0,0,1,.659,3.115" fill="#570000"/>
              </g>
            </g>
          </g>
          <path id="Trazado_15790" data-name="Trazado 15790" d="M650.637,2230.251a.372.372,0,0,1,.045-.741l3.09-.033a7.74,7.74,0,0,0,7.646-7.814l-.026-2.412a7.74,7.74,0,0,0-7.813-7.647l-2.111.023a.372.372,0,0,1-.009-.744l2.112-.023a8.483,8.483,0,0,1,8.565,8.383l.027,2.412a8.485,8.485,0,0,1-8.383,8.566l-3.09.033a.315.315,0,0,1-.053,0" fill="#570000"/>
          <path id="Trazado_15791" data-name="Trazado 15791" d="M651.476,2226.7a.372.372,0,0,1,.045-.741l2.213-.024a4.193,4.193,0,0,0,4.142-4.233l-.026-2.412a4.193,4.193,0,0,0-4.233-4.143l-2.111.023a.372.372,0,1,1-.008-.744l2.111-.023a4.939,4.939,0,0,1,4.985,4.879l.026,2.412a4.935,4.935,0,0,1-4.878,4.985l-2.213.024a.315.315,0,0,1-.053,0" fill="#570000"/>
          <g id="Grupo_2539" data-name="Grupo 2539" opacity="0.3">
            <g id="Grupo_2538" data-name="Grupo 2538">
              <g id="Grupo_2537" data-name="Grupo 2537" clip-path="url(#clip-path-2)">
                <path id="Trazado_15792" data-name="Trazado 15792" d="M650.57,2207.026l0,.13a5.053,5.053,0,0,0-.57-.342c.211.064.4.13.567.2v.014" fill="#570000"/>
              </g>
            </g>
          </g>
          <g id="Grupo_2546" data-name="Grupo 2546">
            <path id="Trazado_15793" data-name="Trazado 15793" d="M648.412,2233.654c.056,5.112-10.321,6.791-16.71,4.879H631.7c-2.82-.845-4.863-2.388-4.888-4.645Z" fill="#f0f0f0"/>
            <path id="Trazado_15794" data-name="Trazado 15794" d="M648.412,2233.737l-20.46.222c.024,2.257,2.067,3.8,4.888,4.645h0a18.63,18.63,0,0,0,3.694.678,19.684,19.684,0,0,1-4.837-.749h0c-2.82-.845-4.863-2.388-4.888-4.645l21.6-.234c0,.028,0,.055,0,.083" fill="#fff"/>
            <g id="Grupo_2542" data-name="Grupo 2542" opacity="0.3">
              <g id="Grupo_2541" data-name="Grupo 2541">
                <g id="Grupo_2540" data-name="Grupo 2540" clip-path="url(#clip-path-3)">
                  <path id="Trazado_15795" data-name="Trazado 15795" d="M648.412,2233.654c.056,5.112-10.321,6.791-16.71,4.879q4.341,1,6.447-1.173l4.58-3.645Z" fill="#570000"/>
                </g>
              </g>
            </g>
            <path id="Trazado_15796" data-name="Trazado 15796" d="M651.426,2207.743l.18,16.685c.1,9.425-6.909,12.868-13.956,12.944a21.056,21.056,0,0,1-2.246-.094h0c-6.232-.6-11.9-4.125-11.986-12.546l-.181-16.684c-.012-1.194,6.288-2.231,14.072-2.315a75.66,75.66,0,0,1,8.564.352,23.846,23.846,0,0,1,4.13.729c.909.275,1.42.59,1.424.929" fill="#f0f0f0"/>
            <path id="Trazado_15797" data-name="Trazado 15797" d="M638.165,2237.36c-.172.007-.343.01-.515.012a21.056,21.056,0,0,1-2.246-.094h0c-6.232-.6-11.9-4.125-11.986-12.546l-.181-16.684c-.012-1.194,6.288-2.231,14.072-2.315l.513,0c-7.533.124-13.543,1.141-13.531,2.308l.181,16.684c.091,8.421,5.754,11.945,11.986,12.546h0c.566.054,1.136.085,1.707.093" fill="#fff"/>
            <path id="Trazado_15798" data-name="Trazado 15798" d="M634.657,2237.569a14.77,14.77,0,0,1-6.951-2.656c-3.044-2.275-4.613-5.7-4.661-10.177l-.181-16.684c-.005-.522.447-1.291,4.424-1.945a79.009,79.009,0,0,1,20.045-.217c3.99.568,4.459,1.327,4.465,1.849l.18,16.684c.048,4.478-1.445,7.935-4.44,10.276a16.439,16.439,0,0,1-9.884,3.045,21.3,21.3,0,0,1-3-.175m12.207-30.992a70.723,70.723,0,0,0-9.552-.473,69.951,69.951,0,0,0-9.71.706c-3.144.5-3.949,1.064-3.994,1.24l.181,16.678c.124,11.525,10.638,12.306,13.857,12.272s13.713-1.044,13.588-12.569l-.18-16.68c-.055-.177-.878-.722-4.019-1.152l-.171-.022m4.19,1.176" fill="#570000"/>
            <path id="Trazado_15799" data-name="Trazado 15799" d="M634.428,2239.479c-4.238-.559-7.956-2.348-7.991-5.587a.373.373,0,0,1,.745-.008c.021,1.959,1.751,3.133,3.2,3.773a20.276,20.276,0,0,0,14.544-.158c1.433-.67,3.138-1.881,3.116-3.841a.372.372,0,0,1,.744-.008c.044,4.054-5.728,5.963-11.109,6.021a22.93,22.93,0,0,1-3.247-.192" fill="#570000"/>
            <path id="Trazado_15800" data-name="Trazado 15800" d="M629.082,2210.4l-.32-.044c-3.42-.487-3.865-1.13-3.87-1.636a.372.372,0,0,1,.743-.026c.039.059.456.557,3.507.963l.033,0a60.646,60.646,0,0,0,8.18.405c8.452-.092,11.819-1.175,12.021-1.881a.372.372,0,1,1,.715.2c-.146.514-.733,1.26-4.127,1.815a60.218,60.218,0,0,1-8.6.606,61.348,61.348,0,0,1-8.281-.41" fill="#570000"/>
            <g id="Grupo_2545" data-name="Grupo 2545" opacity="0.3">
              <g id="Grupo_2544" data-name="Grupo 2544">
                <g id="Grupo_2543" data-name="Grupo 2543" clip-path="url(#clip-path-4)">
                  <path id="Trazado_15801" data-name="Trazado 15801" d="M644.627,2211.433a16.687,16.687,0,0,0,5.348-1.533.426.426,0,0,1,.63.37l.146,13.44c.1,8.951-6.22,12.506-12.892,12.906,3.508-1.281,6.114-4.087,6.116-11.3l-.141-12.973a.912.912,0,0,1,.793-.914" fill="#570000"/>
                </g>
              </g>
            </g>
            <path id="Trazado_15802" data-name="Trazado 15802" d="M633.6,2227.449a25.334,25.334,0,0,1-3.931-.856,1.327,1.327,0,0,1-.935-1.256l-.108-10.018a1.33,1.33,0,0,1,1.684-1.3,23.869,23.869,0,0,0,3.522.661,1.324,1.324,0,0,1,1.168,1.3l.11,10.126a1.33,1.33,0,0,1-1.51,1.333" fill="#fff"/>
            <path id="Trazado_15803" data-name="Trazado 15803" d="M634.106,2233.032a9.068,9.068,0,0,1-4.75-1.038,1.1,1.1,0,0,1-.557-.942l-.017-1.551a1.094,1.094,0,0,1,1.406-1.059,22.277,22.277,0,0,0,3.988.76,1.093,1.093,0,0,1,.982,1.075l.018,1.65a1.093,1.093,0,0,1-1.07,1.1" fill="#fff"/>
            <ellipse id="Elipse_91" data-name="Elipse 91" cx="12.538" cy="1.911" rx="12.538" ry="1.911" transform="translate(624.892 2206.691)" fill="#570000"/>
            <path id="Trazado_15804" data-name="Trazado 15804" d="M625.113,2208.961c1.1-.884,6.2-1.552,12.317-1.552s11.214.668,12.316,1.552a.485.485,0,0,0,.222-.359c0-1.055-5.614-1.911-12.538-1.911s-12.538.856-12.538,1.911A.483.483,0,0,0,625.113,2208.961Z" fill="#c18d8d"/>
            <ellipse id="Elipse_92" data-name="Elipse 92" cx="5.443" cy="1.072" rx="5.443" ry="1.072" transform="translate(626.974 2207.531)" fill="#8b2f2f"/>
          </g>
        </g>
      </g>
      <g id="Grupo_2555" data-name="Grupo 2555">
        <g id="Grupo_2550" data-name="Grupo 2550">
          <g id="Grupo_2549" data-name="Grupo 2549">
            <path id="Trazado_15805" data-name="Trazado 15805" d="M632.957,2205.059a.263.263,0,0,1-.263-.263,2.334,2.334,0,0,1,.983-1.836,1.7,1.7,0,0,0,0-2.9,2.2,2.2,0,0,1,0-3.67,1.827,1.827,0,0,0,.813-1.447.263.263,0,0,1,.525,0,2.331,2.331,0,0,1-.983,1.835,1.7,1.7,0,0,0,0,2.894,2.207,2.207,0,0,1,0,3.673,1.831,1.831,0,0,0-.812,1.448A.263.263,0,0,1,632.957,2205.059Z" fill="#fff"/>
          </g>
        </g>
        <g id="Grupo_2552" data-name="Grupo 2552">
          <g id="Grupo_2551" data-name="Grupo 2551">
            <path id="Trazado_15806" data-name="Trazado 15806" d="M636.532,2205.059a.263.263,0,0,1-.263-.263,2.332,2.332,0,0,1,.983-1.836,1.7,1.7,0,0,0,0-2.9,2.2,2.2,0,0,1,0-3.67,1.829,1.829,0,0,0,.812-1.447.263.263,0,0,1,.526,0,2.331,2.331,0,0,1-.983,1.835,1.7,1.7,0,0,0,0,2.894,2.207,2.207,0,0,1,0,3.673,1.831,1.831,0,0,0-.812,1.448A.263.263,0,0,1,636.532,2205.059Z" fill="#fff"/>
          </g>
        </g>
        <g id="Grupo_2554" data-name="Grupo 2554">
          <g id="Grupo_2553" data-name="Grupo 2553">
            <path id="Trazado_15807" data-name="Trazado 15807" d="M640.107,2205.059a.263.263,0,0,1-.263-.263,2.332,2.332,0,0,1,.983-1.836,1.7,1.7,0,0,0,0-2.9,2.2,2.2,0,0,1,0-3.67,1.829,1.829,0,0,0,.812-1.447.263.263,0,0,1,.526,0,2.331,2.331,0,0,1-.983,1.835,1.7,1.7,0,0,0,0,2.894,2.207,2.207,0,0,1,0,3.673,1.831,1.831,0,0,0-.812,1.448A.263.263,0,0,1,640.107,2205.059Z" fill="#fff"/>
          </g>
        </g>
      </g>
    </g>
    <g id="Grupo_2560" data-name="Grupo 2560" style="isolation: isolate">
      <ellipse id="Elipse_93" data-name="Elipse 93" cx="8.671" cy="18.377" rx="8.671" ry="18.377" transform="matrix(0.521, -0.853, 0.853, 0.521, 623.823, 2188.075)" fill="url(#linear-gradient)"/>
      <path id="Trazado_15808" data-name="Trazado 15808" d="M651.81,2185.093c-7.921-6.047-17.828-8.636-22.128-5.782s-1.364,10.068,6.557,16.115,17.828,8.635,22.128,5.782S659.731,2191.14,651.81,2185.093Zm-15.487,10.247a28.26,28.26,0,0,1-6.425-6.619h0c-2.69-4.077-2.729-7.551-.1-9.294,4.247-2.818,14.086-.238,21.932,5.752a28.222,28.222,0,0,1,6.425,6.619c2.691,4.077,2.73,7.551.1,9.293C654.008,2203.909,644.17,2201.329,636.323,2195.34Z" opacity="0.7" fill="url(#linear-gradient-2)" style="mix-blend-mode: overlay;isolation: isolate"/>
      <g id="Grupo_2559" data-name="Grupo 2559">
        <g id="Grupo_2557" data-name="Grupo 2557" opacity="0.75" style="mix-blend-mode: multiply;isolation: isolate">
          <path id="Trazado_15809" data-name="Trazado 15809" d="M656.964,2200.429c-3.781,2.508-12.553.2-19.556-5.145s-9.626-11.737-5.845-14.246,12.553-.2,19.557,5.147S660.744,2197.92,656.964,2200.429Zm-1.155-.882c3.437-2.28,1.054-8.088-5.312-12.948s-14.343-6.96-17.78-4.68-1.053,8.092,5.314,12.952S652.373,2201.828,655.809,2199.547Zm-11.09-15.841-2.257.084a.075.075,0,0,0-.045.012.045.045,0,0,0-.012.035c.013.63.024,1.276.037,1.94,0,.079-.018.055.089.136l2.434,1.825.086.069c-.024.005-.04.01-.058.012l-.955.107-2.441.272-2.853.318q-1.029.115-2.107.234a.1.1,0,0,0-.056.019.073.073,0,0,0-.021.051q-.1,1.149-.213,2.365c-.008.087-.016.174-.026.261a.171.171,0,0,1-.022.05l9.766,7.211a.3.3,0,0,1,.06-.035l2.631-.831.049-.016-.327-2.849-3.137-2.336c.154-.036.3-.062.448-.092l.431-.087.43-.086.417-.084.416-.084.4-.081-.262-2.388c.033.023.057.038.079.054l.607.455,2.066,1.55c.016.012.033.023.048.036a.105.105,0,0,0,.1.031c.535-.112,1.059-.219,1.572-.325l.427-.088.042-.01-.085-.443q-.17-.877-.333-1.72v0l-7.389-5.573Zm-7.975,7.2c.054-.635.108-1.275.159-1.894l1.53-.176.467-.055,1.5-.173,1.356-.158,1.661-.193.779-.09.2-.024.4-.046.128,1.819-8.2,1.207Zm11.454,4.146.143,1.3.106.959-5.224-3.876,2.142-.493Zm-.833-5.27.193,1.848-2.05-1.533-.146-1.817Zm-4.657-4.785q-.012-.5-.024-.991l1.836-.075.087,1.568-1.883.16C642.719,2185.432,642.714,2185.212,642.708,2184.993Zm9.224,4.315.263,1.395.041.215.022.116-7.111-5.351-.1-1.57Z" fill="#967272"/>
        </g>
        <g id="Grupo_2558" data-name="Grupo 2558">
          <path id="Trazado_15810" data-name="Trazado 15810" d="M656.767,2199.838c-3.781,2.508-12.553.2-19.556-5.144s-9.626-11.738-5.845-14.247,12.553-.2,19.557,5.147S660.547,2197.329,656.767,2199.838Zm-1.155-.881c3.437-2.281,1.054-8.089-5.312-12.949s-14.343-6.96-17.78-4.68-1.053,8.092,5.314,12.952S652.176,2201.237,655.612,2198.957Zm-11.09-15.842-2.257.084a.07.07,0,0,0-.044.012.043.043,0,0,0-.013.035c.013.631.024,1.277.037,1.94,0,.079-.018.055.089.136l2.434,1.825.086.069c-.024,0-.04.01-.058.012l-.955.107-2.441.272-2.853.318q-1.029.115-2.107.234a.1.1,0,0,0-.056.02.071.071,0,0,0-.021.05c-.068.767-.14,1.554-.213,2.365-.008.087-.016.174-.025.261a.19.19,0,0,1-.023.05l9.766,7.211a.369.369,0,0,1,.06-.035l2.631-.831.049-.016-.327-2.849-3.137-2.335c.154-.037.3-.063.448-.093s.288-.058.431-.086l.43-.087.417-.084.416-.083.4-.082-.261-2.388c.033.023.056.038.078.055l.607.454,2.066,1.55c.016.012.033.023.048.036a.1.1,0,0,0,.1.031l1.572-.325.428-.088.041-.01-.085-.443q-.169-.877-.333-1.72v0l-7.389-5.574A.336.336,0,0,1,644.522,2183.115Zm-7.975,7.2c.054-.635.108-1.275.159-1.893.52-.059,1.037-.12,1.53-.177l.467-.054,1.5-.174,1.356-.157,1.661-.193.779-.091.2-.023.4-.047.128,1.819-8.2,1.207ZM648,2194.457l.143,1.3.106.958-5.224-3.876,2.142-.493Zm-.833-5.27.193,1.848-2.05-1.532-.146-1.818Zm-4.657-4.785c-.008-.335-.015-.665-.024-.99l1.836-.076.087,1.568-1.883.16C642.522,2184.842,642.517,2184.621,642.511,2184.4Zm9.224,4.315.263,1.4.041.214.022.116-7.111-5.35-.1-1.57Z" fill="url(#linear-gradient-3)"/>
        </g>
      </g>
      <path id="Trazado_15811" data-name="Trazado 15811" d="M655.987,2204.652l.007,0c.147-.079.29-.164.427-.255l.029-.02c.061-.041.114-.086.172-.129.075-.055.152-.109.222-.167l.017-.012c.051-.043.1-.091.145-.136.067-.061.137-.122.2-.187l.018-.017c.043-.044.078-.093.119-.139.06-.069.122-.137.177-.209.006-.008.014-.015.021-.024a4,4,0,0,0,.225-.331l1.947-3.185a4.227,4.227,0,0,1-.247.356c-.055.071-.117.139-.177.208-.046.052-.088.106-.137.157s-.132.125-.2.187-.1.1-.162.148-.147.111-.221.166-.131.1-.2.149q-.206.137-.427.255c-.026.014-.054.026-.08.04-.132.068-.267.134-.407.194s-.264.109-.4.157l-.083.029c-.149.051-.3.1-.457.142l-.026.007c-.145.039-.3.074-.446.106l-.132.027c-.164.033-.33.062-.5.087H655.4c-.172.025-.349.044-.528.061l-.172.014c-.121.009-.244.017-.367.023-.1,0-.2.008-.295.01s-.216,0-.325,0l-.306,0c-.121,0-.243-.005-.367-.01l-.2-.01c-.152-.009-.307-.02-.462-.033l-.154-.012q-.31-.029-.627-.068l-.143-.02c-.153-.021-.308-.043-.464-.068-.281-.044-.565-.092-.853-.149l-.037-.008c-.276-.055-.556-.117-.837-.184l-.269-.066q-.324-.08-.652-.17l-.274-.076c-.278-.08-.558-.163-.84-.253l-.069-.021c-.337-.109-.677-.227-1.019-.35l-.261-.095c-.318-.118-.636-.24-.955-.369l-.094-.037-.183-.077c-.187-.078-.374-.157-.562-.239-.091-.039-.183-.081-.274-.122l-.436-.2q-.5-.234-1.009-.485l-.222-.113q-.348-.177-.7-.362l-.321-.175c-.184-.1-.368-.2-.551-.307l-.332-.19c-.176-.1-.351-.207-.526-.313-.107-.064-.214-.128-.32-.193-.179-.11-.356-.223-.534-.337l-.289-.184c-.2-.128-.39-.259-.585-.391l-.218-.146q-.4-.274-.792-.56-.37-.268-.736-.547l-.223-.174q-.283-.22-.56-.443l-.231-.188q-.267-.22-.527-.442l-.2-.166c-.236-.2-.468-.411-.693-.618l-.1-.1q-.309-.287-.6-.574l-.167-.164c-.244-.242-.481-.484-.708-.726-.086-.092-.17-.183-.254-.275-.062-.068-.126-.136-.187-.205-.093-.1-.183-.207-.273-.311-.053-.061-.108-.123-.16-.184-.037-.043-.071-.086-.107-.129-.125-.15-.249-.3-.368-.449-.053-.066-.1-.132-.155-.2-.1-.127-.2-.253-.291-.38l-.15-.2c-.105-.145-.206-.289-.306-.433l-.11-.159c-.13-.2-.256-.388-.376-.58-.022-.036-.042-.071-.063-.107-.1-.158-.189-.315-.278-.471l-.1-.187c-.073-.134-.144-.267-.211-.4-.031-.061-.063-.122-.093-.183q-.115-.235-.218-.469c-.014-.03-.029-.061-.042-.092-.08-.185-.153-.367-.221-.549-.019-.05-.036-.1-.053-.15-.048-.132-.093-.264-.133-.4-.019-.06-.037-.119-.054-.179-.037-.127-.071-.254-.1-.379-.013-.051-.027-.1-.038-.153-.039-.173-.073-.344-.1-.512,0-.019,0-.037-.007-.056-.022-.15-.039-.3-.051-.442,0-.052-.007-.1-.01-.155-.006-.115-.01-.228-.01-.34,0-.053,0-.1,0-.157,0-.123.01-.246.021-.366,0-.033,0-.067.008-.1.017-.151.041-.3.071-.444.008-.037.018-.072.026-.108.025-.109.054-.216.087-.322.014-.046.03-.092.046-.138.034-.1.072-.194.113-.288.018-.041.035-.082.054-.122a3.8,3.8,0,0,1,.2-.382l-1.947,3.185a4.1,4.1,0,0,0-.2.382c-.019.04-.035.081-.053.122-.041.094-.079.19-.113.288-.016.046-.032.091-.046.138-.033.1-.062.213-.087.321-.009.037-.019.072-.026.109-.03.145-.054.293-.071.444,0,.033-.005.067-.008.1-.011.121-.019.242-.022.366,0,.052,0,.1,0,.157,0,.112,0,.225.011.339,0,.052.005.1.01.155.012.146.028.293.051.442,0,.019,0,.038.007.057.026.168.06.339.1.512.011.05.025.1.037.152.031.126.064.252.1.38.017.059.035.119.053.179.041.131.086.262.133.4l.053.15c.068.181.141.364.221.549.014.03.029.062.042.092.069.155.142.312.219.469.03.061.061.122.092.183.068.133.138.266.212.4.034.062.067.124.1.186q.132.235.278.473c.022.035.041.07.063.1.119.193.245.386.376.581l.109.157c.1.145.2.29.308.435.022.031.043.063.066.094l.083.108c.094.127.192.254.291.382.051.065.1.131.155.2.119.15.242.3.368.449.03.035.056.07.086.1l.021.023c.052.062.107.124.16.185.09.1.18.207.273.311.061.069.125.137.187.2s.143.158.217.237l.036.038c.228.242.465.484.708.726.024.023.046.047.07.071s.066.062.1.093q.294.288.6.575c.026.024.05.049.077.073l.025.022q.338.31.694.619l.06.053c.044.038.091.075.135.113q.259.222.528.442c.042.035.083.071.126.106l.1.081c.184.149.372.3.562.445.046.035.089.07.134.1l.088.067q.358.274.724.539l.011.009q.395.285.793.559l.018.014c.067.045.134.088.2.133.194.132.389.263.585.39l.05.034c.079.051.159.1.239.151.177.113.355.227.534.337l.089.056c.077.047.154.091.23.137.175.1.351.21.527.313l.136.081.2.109c.184.1.368.207.552.307.062.034.123.07.184.1l.136.071q.348.186.7.362c.058.03.116.062.174.091l.048.023q.5.252,1.008.484l.088.043.35.156.272.121c.188.082.376.161.564.239.06.025.121.052.181.076l.024.01.07.027c.32.13.639.252.956.37l.26.095c.342.123.682.241,1.02.35l.009,0c.02.006.04.011.059.018q.423.134.841.253l.274.076c.219.06.436.116.653.17.089.022.178.045.267.066.282.066.561.128.838.184l.037.007c.288.057.572.106.853.15l.088.016c.126.019.251.035.376.052l.143.02c.211.026.42.049.626.068.052.005.1.008.154.012q.234.019.463.033l.2.009.192.009c.06,0,.117,0,.177,0l.305,0c.109,0,.217,0,.324-.005s.2-.006.3-.01c.043,0,.089,0,.132,0,.079-.005.156-.012.234-.019l.173-.013c.178-.017.355-.037.527-.061h.01c.17-.025.336-.055.5-.087l.131-.027.146-.031c.1-.023.2-.049.3-.076l.024-.006q.169-.047.333-.1c.042-.013.083-.029.124-.043l.084-.029c.124-.044.247-.09.365-.14l.036-.017c.14-.06.274-.126.406-.2C655.937,2204.675,655.963,2204.665,655.987,2204.652Z" fill="url(#linear-gradient-4)"/>
      <path id="Trazado_15812" data-name="Trazado 15812" d="M655.022,2202.3l-24.643-12.666a17.723,17.723,0,0,1-1.487-2.354l28.275,14.532A8.717,8.717,0,0,1,655.022,2202.3Zm5.239-3.918-32.381-16.642a5.094,5.094,0,0,0-.172,1.5l32.068,16.481A4.279,4.279,0,0,0,660.261,2198.379Zm-1.218,2.286a4.308,4.308,0,0,0,.428-.484l-31.714-16.3a7.677,7.677,0,0,0,.136.774Zm-1.656-10.149L633.4,2178.188a7.734,7.734,0,0,0-3.719,1.123c-.038.025-.07.053-.107.079l30.328,15.587A15.669,15.669,0,0,0,657.387,2190.516Z" opacity="0.7" fill="url(#linear-gradient-5)" style="mix-blend-mode: overlay;isolation: isolate"/>
    </g>
  </g>
</svg>
