<svg xmlns="http://www.w3.org/2000/svg" xmlns:xlink="http://www.w3.org/1999/xlink" width="58.801" height="41.7" viewBox="0 0 58.801 41.7">
  <defs>
    <clipPath id="clip-path">
      <rect id="Rect치ngulo_577" data-name="Rect치ngulo 577" width="36.217" height="22.216" transform="translate(617.381 2988.15)" fill="none"/>
    </clipPath>
    <clipPath id="clip-path-2">
      <rect id="Rect치ngulo_578" data-name="Rect치ngulo 578" width="35.477" height="11.221" transform="translate(617.571 2980.425)" fill="none"/>
    </clipPath>
    <linearGradient id="linear-gradient" x1="112.295" y1="165.407" x2="112.042" y2="166.822" gradientUnits="objectBoundingBox">
      <stop offset="0.032" stop-color="#fce878"/>
      <stop offset="0.053" stop-color="#fce675"/>
      <stop offset="0.698" stop-color="#feb332"/>
      <stop offset="1" stop-color="#ffa018"/>
    </linearGradient>
    <linearGradient id="linear-gradient-2" x1="112.094" y1="165.284" x2="112.627" y2="163.676" gradientUnits="objectBoundingBox">
      <stop offset="0" stop-color="#ffe6b9" stop-opacity="0"/>
      <stop offset="0.156" stop-color="#ffebc8" stop-opacity="0.227"/>
      <stop offset="0.359" stop-color="#fff2db" stop-opacity="0.498"/>
      <stop offset="0.543" stop-color="#fff7eb" stop-opacity="0.714"/>
      <stop offset="0.7" stop-color="#fffbf5" stop-opacity="0.871"/>
      <stop offset="0.825" stop-color="#fffefc" stop-opacity="0.965"/>
      <stop offset="0.901" stop-color="#fff"/>
    </linearGradient>
    <linearGradient id="linear-gradient-3" x1="210.798" y1="91.618" x2="210.907" y2="89.993" gradientUnits="objectBoundingBox">
      <stop offset="0" stop-color="#ffb817"/>
      <stop offset="0.989" stop-color="#ffffbc"/>
    </linearGradient>
    <linearGradient id="linear-gradient-4" x1="112.083" y1="206.494" x2="111.189" y2="207.642" gradientUnits="objectBoundingBox">
      <stop offset="0" stop-color="#f1c73d"/>
      <stop offset="0.039" stop-color="#f1c73d"/>
      <stop offset="0.111" stop-color="#e89f2e"/>
      <stop offset="0.426" stop-color="#dc762b"/>
      <stop offset="0.517" stop-color="#d06b26"/>
      <stop offset="0.679" stop-color="#b1501a"/>
      <stop offset="0.721" stop-color="#a84817"/>
      <stop offset="0.836" stop-color="#aa4917"/>
      <stop offset="0.888" stop-color="#b1501a"/>
      <stop offset="0.928" stop-color="#be5b1f"/>
      <stop offset="0.961" stop-color="#d06b26"/>
      <stop offset="0.977" stop-color="#dc762b"/>
      <stop offset="0.986" stop-color="#dc782b"/>
      <stop offset="0.992" stop-color="#df802b"/>
      <stop offset="0.997" stop-color="#e38f2c"/>
      <stop offset="1" stop-color="#e89f2e"/>
    </linearGradient>
    <linearGradient id="linear-gradient-5" x1="112.46" y1="247.454" x2="112.991" y2="245.06" gradientUnits="objectBoundingBox">
      <stop offset="0" stop-color="#ffe6b9" stop-opacity="0"/>
      <stop offset="0.901" stop-color="#fff"/>
    </linearGradient>
  </defs>
  <g id="Grupo_2658" data-name="Grupo 2658" transform="translate(-615.93 -2973.218)">
    <path id="Trazado_15963" data-name="Trazado 15963" d="M617.45,2994.172c-.822-6.112,6.522-12.147,16.4-13.48,9.407-1.267,17.724,2.179,19.216,7.788a7.1,7.1,0,0,1,.174.869c.021.118.042.235.059.355,3.953,23.318-32.455,29.689-35.854,4.468" fill="#986529"/>
    <g id="Grupo_2650" data-name="Grupo 2650" opacity="0.3">
      <g id="Grupo_2649" data-name="Grupo 2649">
        <g id="Grupo_2648" data-name="Grupo 2648" clip-path="url(#clip-path)">
          <path id="Trazado_15964" data-name="Trazado 15964" d="M617.448,2994.238a8.253,8.253,0,0,1,1.8-6.088c4.215,18.74,28.134,17.487,34.319,3.851,1.279,21.357-32.746,26.575-36.115,2.237" fill="#570000"/>
        </g>
      </g>
    </g>
    <g id="Grupo_2653" data-name="Grupo 2653" opacity="0.6">
      <g id="Grupo_2652" data-name="Grupo 2652">
        <g id="Grupo_2651" data-name="Grupo 2651" clip-path="url(#clip-path-2)">
          <path id="Trazado_15965" data-name="Trazado 15965" d="M653.049,2988.422l-1.025,2.344c-3.793-6.224-11.477-8.394-19.391-7.3-6.913.957-12.576,4.212-15.062,8.175,1.17-5.147,7.762-9.771,16.235-10.943,9.4-1.3,17.732,2.117,19.243,7.721" fill="#fff"/>
        </g>
      </g>
    </g>
    <path id="Trazado_15966" data-name="Trazado 15966" d="M616.012,2994.436c-.032-.239-.055-.48-.069-.72-.363-6.739,7.2-13,17.665-14.45a26.057,26.057,0,0,1,13.882,1.6c4.13,1.827,6.674,4.734,7.167,8.19,1.355,7.23-.794,13.62-6.055,18a21.315,21.315,0,0,1-20.757,3.433c-6.548-2.537-10.751-8.237-11.833-16.05h0m1.436-.2v0Zm29.3,10.589a14.87,14.87,0,0,0,5.374-12.654,19.736,19.736,0,0,0-.32-2.613c-.005-.024-.009-.047-.012-.071-.337-2.44-2.281-4.561-5.473-5.973a23.125,23.125,0,0,0-12.313-1.38c-8.916,1.234-15.842,6.67-15.122,11.9.93,6.724,4.485,11.6,10.009,13.745a18.336,18.336,0,0,0,17.857-2.958" fill="#570000"/>
    <path id="Trazado_15967" data-name="Trazado 15967" d="M616,2994.314a1.449,1.449,0,0,1,2.882-.275c.722,5.219,8.867,8.585,17.785,7.352s15.847-6.7,15.122-11.9a1.449,1.449,0,1,1,2.87-.4c.972,7-6.759,13.671-17.594,15.169s-20.084-2.816-21.053-9.824c-.006-.04-.009-.081-.012-.122" fill="#570000"/>
    <path id="Trazado_15968" data-name="Trazado 15968" d="M631.9,2987.828c.167,1.192-.372,2.253-1.2,2.37s-1.642-.754-1.81-1.946.372-2.253,1.2-2.37,1.642.754,1.81,1.946" fill="#570000"/>
    <path id="Trazado_15969" data-name="Trazado 15969" d="M639.923,2986.257c.167,1.192-.372,2.254-1.2,2.37s-1.643-.754-1.81-1.946.371-2.253,1.2-2.37,1.642.754,1.81,1.946" fill="#570000"/>
    <path id="Trazado_15970" data-name="Trazado 15970" d="M639.5,2985.868c0,.448-.262.811-.585.811s-.585-.363-.585-.811.261-.811.585-.811.585.363.585.811" fill="#fff"/>
    <path id="Trazado_15971" data-name="Trazado 15971" d="M631.564,2987.28c0,.448-.262.811-.585.811s-.585-.363-.585-.811.262-.811.585-.811.585.363.585.811" fill="#fff"/>
    <path id="Trazado_15972" data-name="Trazado 15972" d="M633.535,2995.911c0,2.144,1.231,3.881,2.748,3.881s2.747-1.737,2.747-3.881-1.23-3.881-2.747-3.881-2.748,1.738-2.748,3.881" fill="#570000"/>
    <path id="Trazado_15973" data-name="Trazado 15973" d="M638.1,2996.866a2,2,0,1,1-1.963-2.394,2.211,2.211,0,0,1,1.963,2.394" fill="#9b2244"/>
    <path id="Trazado_15974" data-name="Trazado 15974" d="M642.212,2976.218a1.138,1.138,0,0,0,.056-2.009,7.688,7.688,0,0,0-7.251-.147,1.137,1.137,0,0,0,1.017,2.034l.009,0,.036-.018a5.367,5.367,0,0,1,5.069.116,1.137,1.137,0,0,0,1.064.029" fill="#570000"/>
    <path id="Trazado_15975" data-name="Trazado 15975" d="M624.712,2980.974a1.132,1.132,0,0,0,.48-.449,5.365,5.365,0,0,1,4.313-2.665l.041,0a1.137,1.137,0,0,0-.137-2.27,7.691,7.691,0,0,0-6.185,3.8,1.137,1.137,0,0,0,1.488,1.589" fill="#570000"/>
    <g id="Grupo_2657" data-name="Grupo 2657" style="isolation: isolate">
      <ellipse id="Elipse_113" data-name="Elipse 113" cx="17.201" cy="8.116" rx="17.201" ry="8.116" transform="translate(639.174 2994.562) rotate(-4.449)" fill="url(#linear-gradient)"/>
      <path id="Trazado_15976" data-name="Trazado 15976" d="M640.34,3004.361c2.375,4.206,11.738,6.254,20.913,4.574s14.688-6.452,12.313-10.658-11.738-6.254-20.913-4.574S637.965,3000.155,640.34,3004.361Zm.142-.05c-1.45-2.568.058-5.45,4.034-7.708a26.429,26.429,0,0,1,8.17-2.792c9.089-1.664,18.392.362,20.737,4.516,1.45,2.568-.058,5.45-4.033,7.708h0a26.435,26.435,0,0,1-8.171,2.792C652.131,3010.492,642.828,3008.465,640.482,3004.311Z" opacity="0.7" fill="url(#linear-gradient-2)" style="mix-blend-mode: overlay;isolation: isolate"/>
      <g id="Grupo_2656" data-name="Grupo 2656">
        <g id="Grupo_2654" data-name="Grupo 2654" opacity="0.75" style="mix-blend-mode: multiply;isolation: isolate">
          <path id="Trazado_15977" data-name="Trazado 15977" d="M653.417,2995.211c8.113-1.485,16.412.314,18.5,4.012s-2.813,7.916-10.926,9.4-16.409-.316-18.5-4.014S645.3,2996.7,653.417,2995.211Zm7.23,12.8c7.375-1.35,11.831-5.185,9.933-8.547s-9.444-5-16.818-3.647-11.829,5.183-9.931,8.545S653.273,3009.365,660.647,3008.015Zm-3.222-1.752c-.943-1.572-1.832-3.063-2.687-4.472a.31.31,0,0,1,.024-.367q1.158-2.024,2.179-3.821c.033-.057.072-.11.113-.173l7.272,3.788-6.787,5.2C657.485,3006.346,657.451,3006.307,657.425,3006.263Zm-1.244-8.741.048.036c-.043.077-.084.155-.129.231-.675,1.151-1.385,2.369-2.148,3.654a.423.423,0,0,0,0,.5c.709,1.192,1.438,2.446,2.2,3.756.107.185.207.377.311.568l-.057.051-6.315-4.5Z" fill="#967272"/>
        </g>
        <g id="Grupo_2655" data-name="Grupo 2655">
          <path id="Trazado_15978" data-name="Trazado 15978" d="M653.18,2994.5c8.112-1.485,16.411.314,18.5,4.012s-2.813,7.916-10.925,9.4-16.409-.315-18.5-4.013S645.068,2995.984,653.18,2994.5Zm7.229,12.8c7.375-1.35,11.831-5.185,9.933-8.547s-9.444-5-16.818-3.647-11.829,5.183-9.931,8.545S653.035,3008.652,660.409,3007.3Zm-3.222-1.752c-.942-1.572-1.832-3.063-2.687-4.472a.31.31,0,0,1,.025-.367q1.156-2.025,2.178-3.821c.033-.057.072-.111.114-.173l7.271,3.788-6.786,5.2C657.247,3005.633,657.214,3005.594,657.187,3005.55Zm-1.243-8.742.047.037c-.043.077-.084.155-.129.231-.675,1.151-1.385,2.369-2.148,3.654a.424.424,0,0,0,0,.5c.708,1.192,1.437,2.445,2.2,3.756.108.184.207.377.311.568l-.057.051-6.315-4.5Z" fill="url(#linear-gradient-3)"/>
        </g>
      </g>
      <path id="Trazado_15979" data-name="Trazado 15979" d="M640.862,3008.245l0-.006c-.089-.13-.172-.261-.247-.4l-.017-.029c-.033-.06-.058-.12-.088-.181-.039-.077-.081-.155-.115-.233l-.008-.017c-.025-.058-.042-.117-.064-.175-.03-.08-.062-.16-.087-.241l-.008-.022c-.017-.055-.026-.111-.04-.167-.021-.083-.044-.166-.059-.249l-.007-.028c-.022-.124-.038-.249-.048-.373l-.271-3.483a3.931,3.931,0,0,0,.055.4c.015.083.038.166.059.249.016.063.029.126.048.189.025.081.057.161.087.241.025.064.045.128.072.192s.076.155.115.233.065.14.105.21c.075.134.158.265.247.394.016.023.035.045.051.067.081.113.165.225.256.335s.174.2.268.3l.057.059c.1.106.209.21.321.313l.019.016c.1.094.214.187.327.278l.1.079c.123.1.249.192.381.285l.006,0c.133.093.272.185.414.275l.138.084c.1.06.2.118.3.176l.242.134c.089.048.178.095.269.142s.17.085.256.127c.1.05.206.1.311.147l.175.079c.131.058.264.114.4.169l.134.055c.181.072.364.142.552.209.042.016.085.03.128.045.136.048.275.095.416.14.253.083.51.163.774.238l.035.009q.381.107.776.2l.252.059q.3.071.616.135l.261.053q.4.078.808.146l.067.011c.327.053.661.1,1,.142l.259.031q.471.055.953.1c.032,0,.063.006.094.009l.186.013c.189.015.378.029.57.04.093.006.187.01.28.014l.447.021c.347.013.7.022,1.048.024h.233c.244,0,.488,0,.734-.007.114,0,.229,0,.343-.009.2,0,.393-.013.59-.022l.357-.018c.19-.01.381-.023.572-.037.116-.008.232-.016.349-.026q.294-.024.588-.054c.107-.01.213-.019.32-.031.217-.023.435-.05.653-.077l.245-.03c.3-.039.6-.083.9-.13q.423-.068.846-.144c.088-.016.173-.034.26-.051.22-.042.439-.085.655-.131l.273-.059c.211-.047.42-.095.627-.145.078-.018.156-.036.233-.056.285-.07.565-.144.841-.22l.128-.037c.253-.072.5-.146.746-.223l.21-.066c.3-.1.606-.2.9-.3.11-.039.219-.08.328-.121l.243-.091.359-.144.213-.086.143-.062c.168-.072.335-.144.5-.218l.213-.1c.137-.064.272-.129.4-.194l.212-.106q.224-.114.439-.231l.159-.086q.288-.161.56-.324c.034-.021.065-.042.1-.062q.221-.137.431-.276l.166-.112q.177-.12.345-.243l.156-.114c.131-.1.258-.2.381-.3l.074-.059c.145-.12.284-.242.417-.364.037-.034.072-.068.108-.1.1-.09.19-.181.279-.273l.121-.126c.085-.091.167-.182.246-.274.032-.037.065-.074.1-.111.106-.128.206-.256.3-.385.01-.015.019-.029.03-.044.081-.115.158-.231.23-.347.026-.042.049-.084.074-.125q.081-.14.153-.279c.022-.044.045-.088.066-.131.05-.1.095-.21.137-.315.012-.029.025-.058.036-.086.05-.134.093-.267.129-.4.01-.034.016-.068.025-.1.025-.1.047-.2.064-.3.007-.045.014-.09.02-.135.013-.1.022-.192.028-.288,0-.041.006-.083.007-.124a3.679,3.679,0,0,0-.008-.406l.271,3.484a3.662,3.662,0,0,1,.008.405c0,.041-.005.083-.007.124-.006.1-.015.192-.028.288-.006.045-.013.09-.02.135-.017.1-.039.2-.064.3-.009.034-.015.068-.025.1-.036.134-.079.267-.129.4-.011.029-.025.058-.036.087-.042.1-.087.209-.137.314-.021.044-.044.087-.066.131q-.072.14-.153.279c-.025.042-.048.083-.074.125-.072.116-.148.231-.23.346l-.03.045c-.094.129-.2.257-.3.385-.031.037-.064.074-.1.111q-.118.138-.246.274l-.121.126c-.089.092-.183.183-.279.274-.036.034-.071.068-.108.1q-.2.185-.417.364l-.074.059q-.184.151-.381.3l-.155.114c-.113.082-.228.163-.346.244l-.166.111c-.14.094-.285.186-.433.277l-.1.06c-.181.11-.368.219-.56.325-.052.029-.106.057-.158.085-.144.079-.291.156-.441.232l-.095.051-.115.055q-.2.1-.4.194l-.213.1c-.163.074-.33.147-.5.218l-.116.051-.027.011-.213.086c-.119.048-.238.1-.359.144-.08.031-.163.061-.244.091l-.281.106-.046.015c-.293.106-.594.207-.9.3-.03.01-.058.021-.088.03s-.082.024-.122.036q-.367.115-.748.223l-.1.029-.031.008c-.275.076-.556.15-.841.22l-.073.02-.16.037c-.207.049-.416.1-.628.144l-.15.035-.121.024c-.217.046-.436.089-.658.132l-.157.031-.1.019q-.415.077-.833.142l-.013,0c-.3.047-.6.091-.9.13l-.022,0-.223.026c-.218.027-.436.054-.653.078l-.056.006-.263.024c-.2.02-.393.039-.589.055-.033,0-.066.006-.1.009l-.249.016c-.192.014-.382.027-.573.037-.049,0-.1.008-.148.01-.07,0-.139,0-.209.008q-.3.014-.591.023c-.066,0-.132,0-.2.007h-.144q-.369.007-.734.007l-.185,0-.049,0c-.352,0-.7-.011-1.047-.024l-.092,0-.357-.018-.279-.015c-.192-.011-.382-.025-.571-.04l-.184-.013-.025,0-.07-.007q-.482-.042-.953-.1l-.258-.031c-.337-.043-.672-.089-1-.142h-.009l-.057-.01c-.274-.045-.543-.094-.809-.146l-.26-.053c-.209-.043-.414-.088-.618-.135-.083-.019-.167-.038-.25-.059q-.4-.1-.777-.2l-.035-.009c-.264-.075-.521-.155-.774-.238-.027-.008-.055-.015-.081-.024-.113-.038-.224-.077-.335-.116l-.128-.044c-.188-.068-.371-.138-.552-.209l-.133-.056c-.136-.055-.269-.111-.4-.169l-.175-.079c-.054-.024-.11-.048-.164-.074s-.1-.049-.147-.073c-.087-.042-.172-.084-.256-.127s-.18-.094-.269-.142l-.242-.134c-.035-.021-.073-.04-.108-.061-.064-.037-.125-.076-.187-.114l-.139-.085c-.142-.09-.28-.181-.414-.275l-.006,0h0c-.132-.093-.258-.188-.38-.284l-.1-.079c-.036-.029-.073-.057-.109-.087-.075-.063-.147-.127-.219-.191l-.018-.016c-.081-.074-.159-.148-.235-.224-.03-.029-.057-.059-.086-.089l-.057-.059c-.085-.09-.168-.181-.245-.273-.008-.009-.015-.019-.023-.029-.091-.11-.175-.221-.256-.335C640.894,3008.285,640.877,3008.266,640.862,3008.245Z" fill="url(#linear-gradient-4)"/>
      <path id="Trazado_15980" data-name="Trazado 15980" d="M641.085,3005.372l29.758-.114a16.737,16.737,0,0,1-2.241,1.332l-25.935.1A8.176,8.176,0,0,1,641.085,3005.372Zm-1.288-2.851,33.748-.129a4.794,4.794,0,0,0,.494-1.326l-34.078.131A4,4,0,0,0,639.8,3002.521Zm32.992.974a7.31,7.31,0,0,0,.442-.588l-33.376.128a3.808,3.808,0,0,0,.152.586Zm-31.085-4.984,31.918-.123c-.019-.037-.035-.074-.056-.111a7.235,7.235,0,0,0-2.625-2.516l-25.243.1A14.711,14.711,0,0,0,641.7,2998.511Z" opacity="0.7" fill="url(#linear-gradient-5)" style="mix-blend-mode: overlay;isolation: isolate"/>
    </g>
    <path id="Trazado_15981" data-name="Trazado 15981" d="M650.61,3007.55c.614-1.172-.948-1-2.539-.446a9.455,9.455,0,0,1-5.5-.307,15.466,15.466,0,0,0-2.165-.712,15.973,15.973,0,0,0,2.758-1.039c1.725-.967,2.281-3.1,1.4-3.893s-2.051.084-2.741.5-.231.23-4.5.606a4.813,4.813,0,0,0-2,.6.744.744,0,0,0-.4-.555l-1.7-.81a.588.588,0,0,0-.47-.01.948.948,0,0,0-.522.532,27.435,27.435,0,0,0-2.009,8.22.953.953,0,0,0,.217.714.593.593,0,0,0,.427.213l1.45.053.424.016a.758.758,0,0,0,.722-.518,11.59,11.59,0,0,0,.62,1.211c.754,1.312,4.576,2.9,8.79,2.233s4.716-2.624,4.744-2.679c3.823-1.647,2.958-3.767,2.985-3.935" fill="#fff2e4"/>
    <path id="Trazado_15982" data-name="Trazado 15982" d="M642.974,3014.749a13.707,13.707,0,0,1-2.144.169c-3.585,0-6.513-1.4-7.253-2.691-.092-.162-.188-.33-.282-.507a1.314,1.314,0,0,1-.561.111l-1.881-.07a1.186,1.186,0,0,1-.848-.41,1.546,1.546,0,0,1-.364-1.16,27.98,27.98,0,0,1,2.052-8.4,1.54,1.54,0,0,1,.86-.859,1.174,1.174,0,0,1,.94.032l1.7.808a1.314,1.314,0,0,1,.4.3,5.639,5.639,0,0,1,1.688-.406c1.268-.112,2.135-.175,2.709-.217,1.174-.086,1.174-.086,1.455-.258l.08-.048.2-.127c.739-.464,2.115-1.329,3.243-.309a2.086,2.086,0,0,1,.588,1.838,4.148,4.148,0,0,1-2.1,3.012,8.316,8.316,0,0,1-1.108.5c.179.067.342.133.479.2a8.986,8.986,0,0,0,5.047.283c1.679-.589,2.768-.612,3.237-.07a1.064,1.064,0,0,1,.11,1.167c.34,2.179-1.464,3.524-3.143,4.291-.352.727-1.506,2.245-5.1,2.817m-9.522-4.622h.019a.592.592,0,0,1,.545.36,10.971,10.971,0,0,0,.589,1.149c.6,1.047,4.166,2.581,8.183,1.942,3.5-.556,4.172-1.99,4.271-2.271a.716.716,0,0,1,.035-.087.6.6,0,0,1,.3-.28c1.982-.853,2.874-1.92,2.652-3.17a.851.851,0,0,1-.016-.317.6.6,0,0,1,.059-.178l.005-.008a5.47,5.47,0,0,0-1.823.4,10.027,10.027,0,0,1-5.947-.331,14.718,14.718,0,0,0-2.066-.676.593.593,0,0,1-.019-1.139,15.979,15.979,0,0,0,2.642-.989,2.964,2.964,0,0,0,1.5-2.111.964.964,0,0,0-.206-.825c-.388-.351-.938-.118-1.816.434l-.22.136-.076.046c-.526.322-.636.33-1.987.429-.571.041-1.433.1-2.692.215a4.232,4.232,0,0,0-1.755.527.593.593,0,0,1-.881-.421.15.15,0,0,0-.071-.115l-1.686-.8-.015,0a.366.366,0,0,0-.184.205,26.7,26.7,0,0,0-1.965,8.042.37.37,0,0,0,.068.271.134.134,0,0,0,.015.014l1.865.069h0a.173.173,0,0,0,.139-.123.592.592,0,0,1,.54-.4m14.173,1.358h0Zm-16.731-.909h0Zm2.083-8.541h0Z" fill="#570000"/>
    <path id="Trazado_15983" data-name="Trazado 15983" d="M638.3,3005.6a25,25,0,0,1,4.269,1.2,9.455,9.455,0,0,0,5.5.307c1.591-.558,3.153-.726,2.539.446-.027.168.838,2.289-2.985,3.935-.028.055-.53,2.009-4.744,2.679s-8.036-.921-8.79-2.233a7.236,7.236,0,0,1-.783-6.335c.951-3.124,5,0,5,0" fill="#fff2e4"/>
    <path id="Trazado_15984" data-name="Trazado 15984" d="M642.918,3014.4a13.131,13.131,0,0,1-2.058.161c-3.435,0-6.294-1.326-6.975-2.509a7.435,7.435,0,0,1-.8-6.523,2.01,2.01,0,0,1,1.288-1.46c1.533-.489,3.682,1.044,4.034,1.307a25,25,0,0,1,4.273,1.209,9.293,9.293,0,0,0,5.317.3c.859-.3,2.372-.725,2.849-.173a.772.772,0,0,1,.011.888l0,.03c.366,2.053-1.432,3.324-3.047,4.038-.246.6-1.227,2.152-4.893,2.735m-4.758-8.613a6.665,6.665,0,0,0-3.128-1.341,1.706,1.706,0,0,0-.519.075,1.546,1.546,0,0,0-.978,1.146,7.008,7.008,0,0,0,.762,6.148c.728,1.268,4.508,2.759,8.547,2.116,3.7-.588,4.44-2.19,4.55-2.5.009-.024.015-.039.018-.045a.241.241,0,0,1,.119-.112c2.154-.927,3.116-2.125,2.86-3.559a.594.594,0,0,1-.015-.2.3.3,0,0,1,.024-.071c.107-.2.138-.36.084-.423-.136-.156-.869-.2-2.335.311a9.741,9.741,0,0,1-5.677-.317,25.866,25.866,0,0,0-4.155-1.177.235.235,0,0,1-.157-.049m9.465,5.7h0Zm-9.263-5.658h0" fill="#570000"/>
    <path id="Trazado_15985" data-name="Trazado 15985" d="M632.766,3007.327s.293-4.688,4.562-5.065,3.809-.188,4.5-.607,1.862-1.3,2.741-.5.323,2.926-1.4,3.893c-1.218.683-3.648,1.242-4.025,1.472" fill="#fff2e4"/>
    <path id="Trazado_15986" data-name="Trazado 15986" d="M632.766,3007.564h-.015a.237.237,0,0,1-.222-.252c0-.049.357-4.9,4.778-5.286,1.265-.112,2.131-.175,2.7-.216,1.261-.092,1.261-.092,1.615-.309l.079-.048.208-.129c.706-.444,1.887-1.186,2.815-.347a1.737,1.737,0,0,1,.474,1.534,3.786,3.786,0,0,1-1.919,2.742,17.052,17.052,0,0,1-2.938,1.1,9.08,9.08,0,0,0-1.08.367.237.237,0,1,1-.247-.405,7.245,7.245,0,0,1,1.188-.416,16.668,16.668,0,0,0,2.845-1.06,3.285,3.285,0,0,0,1.679-2.381,1.282,1.282,0,0,0-.32-1.129c-.61-.553-1.41-.128-2.245.4-.075.048-.147.093-.215.133l-.076.048c-.453.276-.505.28-1.828.377-.572.042-1.435.1-2.7.216-4.012.354-4.335,4.66-4.346,4.843a.238.238,0,0,1-.237.222" fill="#570000"/>
    <path id="Trazado_15987" data-name="Trazado 15987" d="M635.32,3003.175a.762.762,0,0,0-.387-.864l-1.7-.811a.588.588,0,0,0-.47-.01.948.948,0,0,0-.522.532,27.315,27.315,0,0,0-2.008,8.22.952.952,0,0,0,.216.715.6.6,0,0,0,.427.212l1.45.054.424.015a.764.764,0,0,0,.748-.6.776.776,0,0,0,.019-.117,24.069,24.069,0,0,1,1.765-7.229.833.833,0,0,0,.039-.12" fill="#fff2e4"/>
    <path id="Trazado_15988" data-name="Trazado 15988" d="M633.728,3010.7a1,1,0,0,1-.961.78h-.024l-1.877-.069a.831.831,0,0,1-.6-.292,1.187,1.187,0,0,1-.276-.893,27.644,27.644,0,0,1,2.026-8.29,1.185,1.185,0,0,1,.657-.663.824.824,0,0,1,.658.019l1.7.81a1,1,0,0,1,.516,1.133h0a1.069,1.069,0,0,1-.051.157,23.793,23.793,0,0,0-1.747,7.157,1.38,1.38,0,0,1-.025.152m-.6-8.982a.316.316,0,0,0-.137-.031.417.417,0,0,0-.147.029.714.714,0,0,0-.387.4,27.119,27.119,0,0,0-1.991,8.149.715.715,0,0,0,.157.537.362.362,0,0,0,.258.133l1.874.069a.525.525,0,0,0,.509-.415.61.61,0,0,0,.014-.082,24.323,24.323,0,0,1,1.782-7.3.608.608,0,0,0,.028-.084.526.526,0,0,0-.261-.6l-1.7-.81m2.19,1.461h0Z" fill="#570000"/>
    <path id="Trazado_15989" data-name="Trazado 15989" d="M641.374,3010.257s6.781,1.507,9.236-2.706" fill="#fff2e4"/>
    <path id="Trazado_15990" data-name="Trazado 15990" d="M644.1,3010.757a14,14,0,0,1-2.775-.268.237.237,0,0,1,.1-.463c.066.014,6.64,1.419,8.979-2.595a.238.238,0,0,1,.411.239c-1.046,1.793-3.026,2.848-5.727,3.05-.342.026-.675.037-.991.037" fill="#570000"/>
  </g>
</svg>
