<svg xmlns="http://www.w3.org/2000/svg" width="646.236" height="270.894" viewBox="0 0 646.236 270.894">
  <g id="Grupo_413" data-name="Grupo 413" transform="translate(-2729.117 -3660.694)">
    <g id="Grupo_410" data-name="Grupo 410">
      <rect id="Rectángulo_70" data-name="Rectángulo 70" width="300.353" height="160.203" rx="20.102" transform="translate(2729.117 3665.775)" fill="#fff0eb"/>
      <text id="Requisitos_previos:_La_oferta_mínima_es_el_1_del_grupo_JavaBid._El_10_de_la_oferta_se_quemará_instantáneamente." data-name="Requisitos previos:

La oferta mínima es el 1% del grupo JavaBid.
El 10% de la oferta se quemará instantáneamente." transform="translate(2764.677 3695.504)" fill="#816c73" font-size="12" font-family="Poppins-Regular, Poppins" letter-spacing="-0.013em"><tspan x="0" y="13">Requisitos previos:</tspan><tspan x="0" y="37"></tspan><tspan x="0" y="61">La oferta mínima es el 1% del grupo </tspan><tspan x="0" y="85">JavaBid.</tspan><tspan x="0" y="109">El 10% de la oferta se quemará </tspan></text>
      <g id="Grupo_409" data-name="Grupo 409">
        <path id="Trazado_427" data-name="Trazado 427" d="M2751.883,3670.9l-2.856-2.636.156-3.883-3.86-.455-2.157-3.233-3.389,1.9-3.645-1.349-1.624,3.531-3.743,1.052.762,3.811-2.41,3.05,2.857,2.636-.157,3.884,3.861.453,2.156,3.234,3.39-1.9,3.645,1.349,1.625-3.531,3.741-1.052-.761-3.811Zm-13.365,6.033-5.111-4.444,1.417-1.631,3.6,3.136,7.006-6.879,1.513,1.541Z" fill="#d86d25"/>
      </g>
    </g>
    <g id="Grupo_412" data-name="Grupo 412">
      <rect id="Rectángulo_71" data-name="Rectángulo 71" width="300.353" height="265.814" rx="20.102" transform="translate(3075 3665.775)" fill="#fff0eb"/>
      <text id="Una_vez_que_finaliza_el_temporizador_de_cuenta_regresiva_de_15_minutos_las_ganancias_se_distribuyen_al_último_postor_en_las_siguientes_proporciones:_50_acreditado_instantáneamente_a_la_dirección_final_de_los_postores_y_coronado_rey_de_las_licitaciones._S" data-name="Una vez que finaliza el temporizador de cuenta regresiva de 15 minutos, las ganancias se distribuyen al último postor en las siguientes proporciones:
50% acreditado instantáneamente a la dirección final de los postores y coronado rey de las licitaciones.
S" transform="translate(3110.559 3695.504)" fill="#816c73" font-size="12" font-family="Poppins-Regular, Poppins" letter-spacing="-0.013em"><tspan x="0" y="13">Una vez que finaliza el temporizador de </tspan><tspan x="0" y="37">cuenta regresiva de 15 minutos, las </tspan><tspan x="0" y="61">ganancias se distribuyen al último postor </tspan><tspan x="0" y="85">en las siguientes proporciones:</tspan><tspan x="0" y="109">50% acreditado instantáneamente a la </tspan><tspan x="0" y="133">dirección final de los postores y coronado </tspan><tspan x="0" y="157">rey de las licitaciones.</tspan><tspan x="0" y="181">Se quema el 30%.</tspan><tspan x="0" y="205">El 10% se transfiere a la siguiente ronda.</tspan></text>
      <g id="Grupo_411" data-name="Grupo 411">
        <path id="Trazado_428" data-name="Trazado 428" d="M3097.765,3670.9l-2.855-2.636.155-3.883-3.859-.455-2.157-3.233-3.389,1.9-3.646-1.349-1.624,3.531-3.742,1.052.762,3.811-2.41,3.05,2.857,2.636-.157,3.884,3.861.453,2.155,3.234,3.391-1.9,3.644,1.349,1.625-3.531,3.741-1.052-.76-3.811Zm-13.364,6.033-5.112-4.444,1.418-1.631,3.6,3.136,7-6.879,1.514,1.541Z" fill="#d86d25"/>
      </g>
    </g>
  </g>
</svg>
